<svg xmlns="http://www.w3.org/2000/svg" viewBox="0 0 2637.08 4608.99"><defs><style>.cls-1{fill:#ffd39f;}.cls-2{fill:#5b5b5b;}.cls-3{fill:#d8b18b;}.cls-4{fill:#c6a081;}.cls-5{fill:#472b18;}.cls-6{fill:#bfa9e0;}.cls-7{fill:#e2b991;}.cls-8{fill:#cbafeb;}.cls-9{fill:#56341d;}</style></defs><title>Fichier 10</title><g id="Calque_2" data-name="Calque 2"><g id="visage"><g id="Calque_4" data-name="Calque 4"><path class="cls-1" d="M485.26,759.05s-33.58,225.5,9.6,340.65S586,1301.21,595.61,1330s19.19,81.57,119.95,105.55L576.42,1598.67l249.49,187.12,427-57.58,191.92-96,177.51-182.32s-163.12-96-220.7-110.35c0,0-91.15-24-72-153.53s129.54-331,129.54-331l-14.39-172.72-201.51,9.59-72-191.91L1022.62,308.06,835.5,164.12,648.39,226.49,494.86,375.23l-19.2,86.36L456.47,595.93s-14.39,24-9.59,57.57,38.38,67.17,38.38,67.17Z"/></g><g id="Calque_8" data-name="Calque 8"><path class="cls-2" d="M698.76,660.7s-43.18,86.36,14.4,119.94,201.51,33.59,235.09-9.59S1001,679.89,1001,660.7s-148.74-57.58-148.74-57.58L718,631.91Z"/><path class="cls-3" d="M483.31,719l64.52,107.53a8.58,8.58,0,0,0,14.56.28c14.3-22,44.68-71,53.71-104.14a8.38,8.38,0,0,1,5.94-5.84c11-2.94,36.32-7.93,28.75,11-8.65,21.61-71.84,156.21-84.25,182.62a8.2,8.2,0,0,1-6.72,4.72c-8.14.69-24.18,3.42-24.18,14.16,0,12.71,37.38,51.58,46.15,60.53a8.53,8.53,0,0,1,2.3,4.46l9,49.6a10,10,0,0,0,.27,1.08c1.26,4,8.41,29.21,4.63,42.66-1.32,4.68,4.2,2.1,12.42,1.11,11-1.32,12.77,15.54,1.85,17.09-6.88,1-14.56.7-19.07-3.8-9.5-9.5-42.52-9.6-10.57,37a8.94,8.94,0,0,0,2.37,2.34l11.93,7.95a8.14,8.14,0,0,1,1.89,1.72c6.51,8.06,48,62.09-.82,71,0,0-32.61,4.66,12.34,82.84A8.51,8.51,0,0,1,611,1312c-3.38,9.2-11.07,33.79-3.39,49.15,9.45,18.89,18.89,51.72,101.54,75.62a8.59,8.59,0,0,1,5.58,5c9.15,22.6,107.76,289.59,152,298.44,48,9.59,556.54,105.55,642.91-96,65.88-153.74,81.5-209.73,85.21-227.64a8.56,8.56,0,0,0-5.59-9.81L1404,1342s-48-19.19-62.37-62.37c-13-39-15.53-64.16-12.41-90.66,12.44-105.43,145.37-430.95,144.91-427.1a8.57,8.57,0,0,0-2.14-9L954.76,254.53a8.56,8.56,0,0,0-4-2.18l-243-56.07a8.59,8.59,0,0,0-7.51,1.84L508.46,361.85a8.7,8.7,0,0,0-2.4,3.35L490.2,404.86a8.55,8.55,0,0,0,3,10.22c27.58,19.31,180.09,136.73,168.93,164.63-6.6,16.51-14.85,15.12-35.35,18.36-42.66,6.74-46.14,3.44-82.91,12-27.78,6.48-45.11,5.93-63.53,6.2-15.66.24-33,6.56-33.8,12.14l-.4,8.15a156.63,156.63,0,0,0,1.17,19.61c4.7,26.2,31.33,57.48,35,61.5A8.06,8.06,0,0,1,483.31,719Z"/></g><g id="Calque_6" data-name="Calque 6"><path class="cls-4" d="M713.16,1437.94s149.79,41,404.12-129.67c6.93-4.65,44.1-20.3,53.41-.27,5.5,11.83-1.1,34.11-13.73,50.78-49.87,65.78-80.32,109.75-124.75,153.53-43.87,43.23-195.13,60-230.89,45.15C763.21,1541.63,713.16,1437.94,713.16,1437.94Z"/></g><g id="Calque_5" data-name="Calque 5"><path class="cls-5" d="M571.64,653.27a10.91,10.91,0,0,0,5-15.77c-5.26-8.65-16.22-19.59-38.58-22.38-38.39-4.8-62.38,0-81.57-4.8s-19.19,67.17,0,62.37,14.4-14.39,52.78-9.6C535.21,666.34,559,658.61,571.64,653.27Z"/><path class="cls-5" d="M677.17,605.52c3.82-9.85,17.16-22.64,43.18-28.79,38.51-9.09,110.35-19.19,115.15-19.19s28.79-4.8,62.37,14.4C925,587.41,967.63,606,983.14,612.63a12,12,0,0,1,7.32,10c.69,8.52-1.49,21.23-20.62,21.23-24.64,0-84.42-17.57-101.14-22.63a41.61,41.61,0,0,0-10.49-1.78c-12.81-.5-44.74.15-85.08,14.82-52.78,19.19-70.7,17.73-81.56,9.59C677.83,633.62,673.3,615.52,677.17,605.52Z"/></g></g><g id="Calque_11" data-name="Calque 11"><path class="cls-1" d="M244.1,3783.32c31.9-108.92,118.82-401.55,184.82-538s71.51-794.3,71.51-794.3l-316.84-71.51s-48.4,226.63-58.3,304.74S78,2910.91,78,2910.91,3.35,3127.55,0,3820.66c52.28,67,203.76,228.16,203.76,228.16S212.2,3892.23,244.1,3783.32Z"/></g><g id="Calque_12" data-name="Calque 12"><path class="cls-6" d="M1626.25,3164.06c-48,134.34-81.1,188.22-120.9,325.71-27.15,93.76-44.42,182.59-71.56,384.92,0,266.94-4.93,476.22,25.62,733.68,79.51-.9,167.59-9.36,264.08-28.88a497.82,497.82,0,0,0,58.71-15.77l88-29.33,0-1.43L2049,4450.43l-20.1-811.56c-21.1-58.53-12.51-187.07-3-254.91,0,0,4.8-239.63-4.89-269.25-36.74-112.34-30-173.33-108.56-170.25C1799.65,2889.4,1657.69,3078.73,1626.25,3164.06Z"/></g><g id="Calque_10" data-name="Calque 10"><path class="cls-7" d="M2475.18,3747.56c12.1-39,35.21-91.86,38-279.43s18.7-493.42,14.3-585.83l-2.2-82.51L1903,2963.65s33.64,207.44,145.31,471.47c0,0,27.53,46.48-2.75,151.82-30.18,105-77.63,253.65-173.75,948,146-37.43,282.64-87,418.62-149,54.47-141.6,113.4-312.73,133-434.85C2423.47,3951.09,2463.08,3786.62,2475.18,3747.56Z"/></g><g id="Calque_7" data-name="Calque 7"><path class="cls-8" d="M2387.6,1951.31s-43.18-172.72-254.29-268.68-570.94-297.46-570.94-297.46l-74.36-12,86.36,48s19.19,86.36-230.3,220.7S835.5,1757,753.94,1646.65c0,0-48-62.37-28.79-143.94l-12.88-63.31L403.7,1550.69s-153.53,57.58-201.51,326.25-81.56,475-81.56,475,57.57,153.53,215.9,215.9l39.8,258.74a702.86,702.86,0,0,1,8.18,106.87v591.79a457.65,457.65,0,0,1-8.9,89.82L278.52,4100.5A73.44,73.44,0,0,0,307,4174l57.77,42.57a844.24,844.24,0,0,0,187.19,104.16l300.82,120.32a1045.26,1045.26,0,0,1,120.93,58c60.21,33.62,184.15,89.12,367.63,105.34C1445.13,4613.62,1456,2654.53,1456,2654.53l432.62,299.53s244.69,110.35,748.46-124.75Z"/><path class="cls-6" d="M2637.08,2829.31l-249.48-878s-43.18-172.72-254.29-268.68-570.94-297.46-570.94-297.46l-74.36-12,86.36,48s19.19,86.36-230.3,220.7c-170.35,91.73-345.13,111.83-464.86,80.26,76.89,154.37,124.46,325.49,203.38,478.69,32.8,61.5,135.7,410.38,191.87,558.42,13.39,35.29-9.68,74.17-47.17,78.64-54,6.43-111.2-4-163.89,5.85-43.18,9.59-60.94,39-33.59,100.75,44.53,117.9,62.37,167.92,96,259.08,96,235.1,62.37,499,57.57,748.46-3.64,209.34-3.13,418-1.1,626.47,76.21,18.57,169.37,31.68,278.82,30.44-6.74-266.5,38.94-524.3,38.94-791.25,24-91.15,48-177.51,72-268.67,33.58-139.14,86.36-263.88,134.34-398.22,31.43-85.33,83.89-242.11,196.72-187.05v-.07C1959.43,2982.07,2200,3033.3,2637.08,2829.31Z"/></g><g id="Calque_3" data-name="Calque 3"><path class="cls-9" d="M605.21,346.44c90.53-4.53,142.63-81.66,148.22-90.36a3.54,3.54,0,0,1,1.41-1.25L824.43,220a31.48,31.48,0,0,1,33.11,3c50.7,38.56,97,128.88,118.6,175.69a131.13,131.13,0,0,0,35,45.93c38.14,31.75,78.41,79.26,106.12,114.43a254.7,254.7,0,0,1,53.14,130c9.66,88.43-1.33,188.73-6.35,226.87a11.57,11.57,0,0,0,13.63,12.87l49-9.19a14.59,14.59,0,0,0,11.9-14.34V892.78a12,12,0,0,1,7.48-11.2c10.07-4,28.27-14.63,41.67-42.33a13.83,13.83,0,0,1,12.81-7.91c25.24.74,96.25,1.79,133.75-8.19a3.52,3.52,0,0,1,4.32,4.3c-5.31,20.55-25.26,89.28-65.55,137.73a3.64,3.64,0,0,0-.24.35c-1.68,3-24.44,42.49-56,61.34a3.33,3.33,0,0,0-1.64,2.57c-.64,7.5-2.15,37.85,13.59,54.84a3.63,3.63,0,0,1,1,2.43v94a3.62,3.62,0,0,0,5,3.35c15.91-6.84,64.21-32.21,66.81-89.13a3.52,3.52,0,0,1,4.51-3.31c15.4,4.7,69.64,15.89,137.69-31.48a3.6,3.6,0,0,0-2.27-6.55,113.54,113.54,0,0,1-20-.42,3.62,3.62,0,0,1-1.69-6.59c19.07-12.88,68-48.17,89.57-84.65a3.64,3.64,0,0,0-3.44-5.48c-23.29,2-99,5.46-111.92-34.25a3.55,3.55,0,0,1,3.37-4.64c11.19,0,41.28-2.39,73-26.53a3.64,3.64,0,0,0-2.41-6.5c-14.94.76-40.9,1.18-53-4A3.6,3.6,0,0,1,1513,876l94.6-269.63a3.57,3.57,0,0,1,.94-1.44c4.63-4.26,33.34-32.5,37.75-81,3.92-43.12-37-99-52.09-118.07a3.57,3.57,0,0,0-6.33,1.65c-2.63,15.73-13.47,48.72-58.08,53.72a3.58,3.58,0,0,1-3.92-3.05c-1.15-8-4-27.77-4.29-30a2.1,2.1,0,0,1,0-.43c9.25-282.31-290.74-356.85-301.95-359.54A2.18,2.18,0,0,1,1219,68C1022.38-51.71,806.63,10.62,653.18,73c-140,56.89-164.32,133.74-167.5,146.81a3.31,3.31,0,0,1-2.3,2.4c-6.69,2-29.84,11.65-46.1,52.3-18,45,31.47,123.67,37.74,133.35a3.75,3.75,0,0,1,.61,2.21C474.5,428.35,448,438,437.11,441.17a3.55,3.55,0,0,0-2,5.35c11,16.31,25.88,27.58,32.43,32.08a3.49,3.49,0,0,1,.71,5.13c-5.58,6.72-18.75,24.92-26.17,54.62-9.6,38.38,4.8,62.37,9.6,67.17,18.26,18.27,33.58-105.55,33.58-134.34,0-23.62,9.69-47.25,13.17-55a3.48,3.48,0,0,1,4-1.91c88.66,21.41,102.76-67.87,102.76-67.87"/></g><g id="Calque_3_-_copie" data-name="Calque 3 - copie"><path class="cls-5" d="M1219.65,68.24A2.18,2.18,0,0,1,1219,68c-4.66-2.84-9.33-5.5-14-8.12a6.9,6.9,0,0,0-1.59-.65C1084.26,26.75,961.58,15.84,842.72,48.62A6.73,6.73,0,0,0,839.11,59c35.74,49.12-26.77,42.34-58.78,83.49-3.07,3.07-.25,10.07.92,16a6.72,6.72,0,0,1-6.59,8H763.91a6.73,6.73,0,0,1-4.74-2c-13.74-13.68-27.48-26.17-41.22-12.43C674.77,209.7,650.79,291.26,574,281.67c-3.91,0-17.37-6.37-14.44-16.51a6.68,6.68,0,0,0-6.09-8.55c-26.81-1-63.35,8.4-69.68,35.68a6.72,6.72,0,0,1-9.2,4.67c-5.56-2.32-11.12-3.72-16.68-2.33a6.57,6.57,0,0,0-4.52,8.37c.18.55.39,1.13.62,1.71,1.83,4.62-1.68,9.24-6.64,9.2a4,4,0,0,0-2.91,1.34,71.28,71.28,0,0,0-5,15.22,6.76,6.76,0,0,0,.17,3.4c8.52,27.91,23.49,54.58,31.16,67.24a6.61,6.61,0,0,0,1.94,2.07,102.12,102.12,0,0,0,22.32,11.61,6.31,6.31,0,0,0,5-.22,3.52,3.52,0,0,1,2.38-.26c76.2,18.41,97.32-45,101.75-63.14a6.71,6.71,0,0,1,6.06-5.06c83.64-6.76,133.27-75.19,142.21-88.57a10.42,10.42,0,0,1,4-3.52l68-34a31.85,31.85,0,0,1,11-3.18,6.69,6.69,0,0,0,3.51-1.37c112.13-89.34,248-123,385.1-146.13C1221.77,68.76,1220.26,68.39,1219.65,68.24Z"/><path class="cls-5" d="M1525.68,456.62c-1.26-8.79-3.76-26.32-4.06-28.41a2.1,2.1,0,0,1,0-.43c5.26-160.51-89.44-253.84-174.2-305-72.15-27.6-149.29-9-226.43-9-33.58,4.8-38.38,43.18-57.57,57.58-48,38.38-124.75,24-187.12,43.18-4.25,0-1,15.06,3.17,28.5,41.8,44.11,78.22,115.74,96.69,155.7a131.13,131.13,0,0,0,35,45.93c37.18,30.95,76.35,76.84,104,111.71C1254.8,561.13,1391.68,499.76,1525.68,456.62Z"/><path class="cls-5" d="M1607.64,606.4a3.57,3.57,0,0,1,.94-1.44c4.63-4.26,33.34-32.5,37.75-81,3.85-42.34-35.47-97-51.2-116.92-25.53,158.84-256.75,103.61-378.2,181.69-25.54,17-42.6,47.51-49.37,81.46q1.74,9.36,2.79,18.87c9.66,88.43-1.32,188.73-6.35,226.87a11.57,11.57,0,0,0,13.63,12.87l49-9.19a14.59,14.59,0,0,0,11.9-14.34V892.78a12,12,0,0,1,7.48-11.2c10.07-4,28.27-14.63,41.67-42.33a13.83,13.83,0,0,1,12.81-7.91c25.24.74,96.25,1.79,133.75-8.19a3.52,3.52,0,0,1,4.32,4.3c-5.31,20.55-25.26,89.28-65.55,137.73a3.64,3.64,0,0,0-.24.35c-1.68,3-24.44,42.49-56,61.34a3.33,3.33,0,0,0-1.64,2.57c-.64,7.5-2.15,37.85,13.59,54.84a3.63,3.63,0,0,1,1,2.43v94a3.62,3.62,0,0,0,5,3.35c15.91-6.84,64.21-32.21,66.81-89.13a3.52,3.52,0,0,1,4.51-3.31c15.4,4.7,69.64,15.89,137.69-31.48a3.6,3.6,0,0,0-2.27-6.55,114.52,114.52,0,0,1-20-.42,3.62,3.62,0,0,1-1.69-6.59c19.07-12.88,68-48.17,89.57-84.65a3.64,3.64,0,0,0-3.44-5.48c-23.29,2-99,5.46-111.92-34.25a3.55,3.55,0,0,1,3.37-4.64c11.19,0,41.28-2.39,73-26.53a3.64,3.64,0,0,0-2.41-6.5c-14.94.76-40.9,1.18-53-4A3.6,3.6,0,0,1,1513,876Z"/></g></g></svg>