<?xml version="1.0" encoding="UTF-8"?><svg id="Calque_2" xmlns="http://www.w3.org/2000/svg" viewBox="0 0 991.6 990.44"><g id="Calque_5"><path d="M777.83,130.95c-9.99,.78-19.43-1.62-27.48-7.36-8.63-6.15-15.52-14.12-17.93-25.17-1.35-6.21-3.47-7.87-9.41-5.97-8.75,2.8-17.32,1.02-25.22-1.75-9.6-3.36-18.78-8.37-23.78-18.53-1.66-3.39-4.05-6.4-6.08-9.6-1.02-1.62-2.25-1.81-4.05-1.25-4.02,1.25-8.07,2.66-12.21,3.22-11.17,1.51-22.25,.89-31.61-6.26-5.45-4.16-10.35-9.26-14.76-14.58-3.55-4.28-4.98-5.21-9.7-2.24-7.05,4.44-14.61,6.84-22.97,6.42-1.97-.1-3.96-.08-5.92,.06-7.3,.51-13.23-2.64-19.17-6.54-4.78-3.14-9.01-6.66-12.72-11-1.67-1.95-4.29-1.56-6.95,.54-8.03,6.33-16.95,10.78-27.17,11.19-8.16,.33-16.36-.45-23.66-4.95-3.34-2.06-6.62-4.24-9.89-6.43-4.17-2.8-4.82-2.73-8.2,1.01-6.38,7.06-14.4,11.77-23.28,14.16-12.97,3.49-25.59,1.68-37.18-5.68-4.11-2.61-4.16-2.6-7.14,1.14-2.23,2.8-4.22,5.83-6.64,8.44-1.86,2.01-4.06,3.84-6.41,5.18-4.78,2.73-9.55,5.84-14.73,7.4-7.5,2.26-15.38,2.24-23.06,.24-3.59-.94-7.02-2.49-10.61-3.4-.86-.21-2.68,.82-3.03,1.7-5.76,14.36-16.63,23.54-30.37,28.45-7.19,2.57-15.46,3.46-23.39,1.13-6.2-1.83-8.35-.58-9.95,5.91-1.91,7.75-6.25,13.9-12.03,19.06-3.29,2.94-6.5,6.41-10.38,8.14-5.75,2.56-11.98,4.43-18.19,5.41-5.45,.86-11.16,.45-16.27-2.67-1.72-1.05-2.83-2.13-2.63-4.2,.45-4.69,.87-9.39,1.5-14.05,.16-1.21,1-2.36,1.67-3.45,1.61-2.63,3.24-5.25,4.98-7.79,1.34-1.96,2.54-4.25,4.36-5.6,10.03-7.46,20.86-12.9,33.75-12.19,2.23,.12,4.42,.81,6.65,1.16,2.11,.33,3.62-.59,4.61-2.49,.23-.44,.65-.82,.76-1.28,2.02-8.12,8.13-13.58,12.63-20.07,1.04-1.49,3.11-2.29,4.78-3.27,5.73-3.33,11.34-7.22,18.18-7.48,4.77-.18,9.59,.23,14.35,.79,2.96,.35,5.84,1.46,8.74,2.26,1.79,.49,2.98-.17,3.93-1.77,6.51-10.94,15.46-19.16,27.05-24.13,3.02-1.3,6.48-2.09,9.75-2.11,8.1-.04,16.4-.62,23.67,4.33,.65,.44,1.41,.73,2.11,1.09,4.64,2.4,5.7,2.04,8.34-2.76,.33-.61,.61-1.31,1.1-1.76,7.74-7.04,15.42-14.21,26.66-14.68,4.91-.21,9.88-1.06,14.71-.53,7.66,.84,14.4,4.59,20.76,8.87,3.04,2.04,4.37,2.22,6.9-.56,6.63-7.3,15.16-11.26,24.3-13.49,5.29-1.29,11.04-1.94,16.53,.32,3.73,1.53,7.63,2.66,11.27,4.35,2.18,1.01,4.03,2.77,6.02,4.2,1.86,1.33,3.72,2.65,5.56,3.98,3.48,2.52,6.38,2.29,10.04-.48,4.83-3.65,10.15-6.6,16.74-6.63,2.97-.01,6.02-.54,9.11-.66,6.44-.25,12.21,1.99,18.04,3.82,3.23,1.01,6.21,3.4,8.83,5.71,3.26,2.87,6.16,6.19,8.98,9.52,1.94,2.29,3.84,2.94,6.72,1.85,4.95-1.88,9.95-3.91,15.11-4.91,4.05-.78,8.42-.5,12.56,.01,6.98,.86,14.1,2.42,19.55,7,5.06,4.25,9.06,9.82,13.44,14.89,.75,.86,.91,2.23,1.56,3.21,1.29,1.93,2.8,3.18,5.45,2.3,3.26-1.08,6.65-1.79,9.99-2.61,6.81-1.67,13.4-.38,19.65,2.22,5.14,2.14,10.01,5.01,14.94,7.65,6.47,3.48,9.21,9.87,11.93,16.23,.66,1.55,1.12,3.2,1.69,4.79,1.21,3.34,3.98,5.14,7.35,4.19,11.46-3.22,21.35,.91,31.23,6.14,8.07,4.27,13.08,11.35,18.12,18.54,.07,6.4,4.41,12.43,1.36,19.13-1.51,3.33-3.85,4.93-7.33,5-2.17,.04-4.34,0-6.51,0Zm-198.44-93.53c1.86-.21,4.27-.2,6.53-.79,3.09-.82,6.14-1.93,9.07-3.25,1.81-.82,2.14-2.29,.21-3.65-1.46-1.03-3.17-1.86-4.27-3.2-4.18-5.11-10.14-6.32-15.95-7.52-6.99-1.45-13.95-2.23-21.3-1.26-4.66,.61-8.91,1.97-13.25,3.29-2.85,.87-2.78,2.35-.7,4.48,5.82,5.96,13.84,7.19,21.05,9.71,5.62,1.96,12.05,1.52,18.61,2.2Zm-268.26,16.36v-.1c-1.38,.11-2.77,.13-4.13,.34-6.78,1.05-13.05,3.66-19.2,6.62-7.85,3.78-13.98,9.52-18.62,16.97-1.29,2.07-.98,3.69,1.2,4.62,1.31,.56,2.85,1.04,4.23,.91,3.32-.32,6.65-.8,9.88-1.6,11.52-2.84,21.32-9.18,30.72-16.21,1.09-.81,2.04-1.93,2.78-3.09,2.37-3.76,.45-7.84-3.92-8.43-.97-.13-1.97-.02-2.95-.02Zm33,.76c2.16-.31,5.08-.6,7.96-1.17,2.3-.45,4.54-1.19,6.79-1.86,2.44-.72,4.95-1.29,7.26-2.32,4.66-2.07,9.29-4.24,13.75-6.7,1.72-.95,3.17-2.63,4.39-4.26,2.59-3.44,1.62-5.48-2.57-6.7-4.3-1.25-8.38-1.75-12.97-.8-9.07,1.87-18.26,3.14-26.07,8.69-3.52,2.5-7,5.17-10.02,8.26-2.91,2.98-1.92,5.32,2.11,5.89,2.83,.4,5.68,.59,9.34,.96Zm161.56-24.41l.02,.18c3.13-.35,6.4-.24,9.36-1.17,3.52-1.1,6.84-2.95,10.09-4.78,1.63-.92,2.45-3.02,.5-4.16-4.24-2.48-8.58-5.68-13.21-6.41-8.38-1.32-16.96-2.34-25.54-.31-5.56,1.31-11.27,2.03-15.86,5.92-3.03,2.57-3.16,4.57,.4,6.04,4.96,2.05,10.2,3.86,15.48,4.51,6.17,.76,12.5,.18,18.77,.18Zm121.79,1.51c-4.76,.27-8.82,.25-12.8,.85-1.94,.29-3.72,1.73-5.57,2.65,1.11,1.89,1.81,4.33,3.4,5.59,12.17,9.64,26.25,14.22,41.48,15.13,2.43,.14,5.11-1.25,7.42-2.45,2.1-1.09,2.47-3.36,.76-5.06-2.19-2.19-4.7-4.08-7.23-5.87-1.59-1.13-3.75-1.51-5.16-2.79-6.6-6.03-14.89-6.78-22.31-8.04Zm-208.59,5.18c8.6-.36,16.06-1.94,23.24-4.87,3.08-1.26,6.38-2.09,9.19-3.79,1.75-1.06,2.78-3.36,4.13-5.1-1.9-1.4-3.62-3.35-5.74-4.09-6.72-2.36-13.77-2.13-20.76-1.8-10.19,.5-19.36,3.93-27.22,10.62-3.74,3.18-3.31,5.02,1.36,6.86,.82,.32,1.69,.6,2.56,.7,4.69,.56,9.39,1.05,13.24,1.47Zm300.61,48.5l.11-.43c.99,0,1.98,.05,2.96,0,3.85-.23,4.61-2.1,3.45-5.78-2.75-8.79-12.29-10.13-17.02-16.65-.05-.06-.19-.05-.28-.08-5.76-1.93-11.45-4.21-17.32-5.68-3.65-.91-7.61-.83-11.42-.69-1.37,.05-3.31,1.3-3.84,2.52-.42,.95,.57,3.12,1.57,4.04,4.51,4.17,9.15,8.22,13.93,12.06,5.84,4.69,13.12,6.18,19.93,8.66,2.55,.93,5.28,1.37,7.93,2.03ZM214.71,122.21c5.34-1.72,10.63-2.78,15.34-5.09,6.32-3.1,12.78-6.27,17.02-12.54,3.11-4.59,6.6-8.91,9.72-13.49,.49-.72,.38-2.55-.19-3.16-.73-.78-2.2-1.16-3.35-1.15-1.54,.01-3.08,.83-4.62,.84-6.53,.05-12.15,3.18-17.15,6.58-8.14,5.52-15.93,11.85-19.89,21.55-.56,1.38-1.29,3.28-.77,4.36,.52,1.07,2.5,1.42,3.88,2.1Zm529.2-32.66c-.49-.04-.98-.09-1.47-.12-3.22-.18-4.25,.91-3.42,4.08,.45,1.7,1.16,3.54,2.29,4.82,6.08,6.92,11.56,14.66,20.17,18.62,3.41,1.57,6.23,5.06,10.73,3.98,.8-.19,2.1,.84,2.87,1.62,2.33,2.35,7.63,2.32,9.48-.41,.54-.81,.58-2.66,.03-3.43-5.34-7.48-9.99-15.44-18.03-20.71-7.05-4.63-14.29-7.84-22.63-8.44Z"/><path d="M734.66,910.23c-1.3-.15-3.05-.3-4.79-.56-2.77-.42-5.07,.11-6.5,2.86-1.66,3.18-3.04,6.58-5.14,9.43-3.17,4.29-6.46,8.64-10.39,12.17-9.01,8.08-19.86,11.22-31.75,10.19-4.12-.36-8.19-1.56-12.25-2.53-2.44-.59-4.13,0-5.48,2.24-1.79,2.97-3.67,5.92-5.78,8.66-8.54,11.08-19.9,16.77-33.61,17.06-5.23,.11-10.54-.92-15.71-1.97-2.7-.55-5.31-2.05-7.69-3.58-2.11-1.36-3.81-1.23-5.17,.61-3.86,5.25-8.14,10.01-13.82,13.26-6.98,3.99-14.15,7.36-22.46,7.04-4.02-.16-8.06-.01-12.08-.22-1.51-.08-3.15-.47-4.45-1.23-4.52-2.62-8.92-5.46-13.36-8.22-1.98-1.23-3.45-.7-5.25,.82-9.12,7.74-18.95,14.19-31.4,14.19-10.72,0-20.56-2.92-28.91-10.19-2.09-1.82-4.48-3.27-6.78-4.82-1.72-1.16-3.39-1.31-5.11,.23-5.18,4.63-11.38,6.69-18.04,8.26-6.88,1.61-13.58,1.5-20.01-.75-5.22-1.83-10.14-4.76-14.91-7.66-4.48-2.73-8.34-6.29-11.14-10.97-1.16-1.93-4.51-2.1-7.05-.53-6.62,4.1-13.79,5.91-21.46,5.16-3.49-.34-6.99-1.18-10.35-2.23-8.28-2.59-15.97-6.1-20.77-14.16-1.98-3.32-4.64-6.22-6.8-9.44-1.74-2.59-3.61-3.46-6.73-2.32-9.52,3.48-19.33,2.81-28.63-.19-9.16-2.96-16.67-9.01-22.27-17.18-.54-.78-.63-1.86-.99-2.78-.53-1.37-1.05-2.75-1.7-4.07-1.05-2.11-2.35-4.1-3.25-6.27-.84-2.01-1.9-3.01-4.2-2.86-5.06,.33-10.18,.95-15.17,.44-3.78-.39-7.54-2.07-11.07-3.7-3.11-1.43-5.78-3.85-8.85-5.38-3.47-1.73-5.68-4.55-7.74-7.64-2.04-3.05-4.15-6.05-6.18-9.11-2.55-3.84-2.7-8.21-2.63-12.64,.04-2.91-1.75-6.47,.93-8.52,3.26-2.48,7.17-4.1,11.58-3.55,5.83,.72,11.56,1.34,17.23,3.4,8.07,2.94,14.6,7.55,19.65,14.49,.41,.56,.63,1.3,1.11,1.76,4.38,4.19,6.04,9.71,7.46,15.39,1.16,4.67,3.1,6.19,7.69,5.1,8.05-1.92,15.95-1.24,23.57,1.41,10.94,3.79,20.64,9.51,26.15,20.62,1.28,2.59,2.87,5.02,4.21,7.58,1.28,2.45,3.19,2.95,5.71,2.47,6.37-1.21,12.74-3.01,19.16-3.28,11.81-.51,22.54,2.66,30.65,12.31,3.2,3.81,6.64,7.41,10.04,11.05,1.48,1.58,3.62,2.67,5.16,.77,3.37-4.17,8.28-3.74,12.6-5.01,2.83-.83,5.76-1.62,8.68-1.72,3.97-.14,8,.13,11.94,.67,11.39,1.55,20.7,7.19,28.56,15.56,2.83,3.02,3.46,2.62,6.93,.42,5.49-3.48,11.03-7.8,17.11-9.18,6.91-1.57,14.4-3.01,21.73-.07,3.4,1.36,7.38,1.22,10.81,2.54,4.35,1.68,8.77,3.48,11.81,7.55,1.52,2.05,3.2,1.24,5.06-.21,5.96-4.65,10.83-10.94,18.34-13.34,8.83-2.82,17.62-5.67,27.12-3.01,6.45,1.81,13.06,2.95,18.76,6.91,2.06,1.43,3.49-.34,4.76-1.75,3.13-3.45,6.12-7.02,9.33-10.39,7.23-7.61,16.19-11.59,26.48-12.12,7.88-.41,15.72,.17,23.37,2.6,3.89,1.24,6.57,.99,7.23-4.44,.18-1.49,1.01-3.16,2.06-4.22,6.3-6.39,12.01-13.14,20.43-17.42,10.56-5.37,21.31-5.75,32.39-4.81,5.07,.43,7.84-2.53,8.35-6.65,.7-5.68,4.53-9.42,7.7-13.6,.6-.79,1.57-1.37,1.96-2.24,2.4-5.41,7.03-7.84,12.09-9.88,2.36-.95,4.52-2.42,6.75-3.71,3.45-2,6.88-3.62,11.13-3.24,4.11,.37,8.29-.06,12.43-.03,5.29,.04,10.59,7.4,8.94,12.51-1.44,4.48-3.09,8.9-4.68,13.34-.8,2.23-1.6,4.48-2.57,6.64-.36,.81-1.13,1.54-1.88,2.03-1.49,.98-3.34,1.51-4.61,2.7-6.19,5.81-13.21,10.12-21.41,12.01-3.78,.88-7.79,.78-12.17,1.16Zm-309.12,64.29c5.8,.67,11.47-.47,16.53-4.15,2.53-1.84,3.09-3.95,1.08-5.66-2.08-1.77-4.39-3.69-6.91-4.4-7.73-2.2-15.53-4.57-23.45-5.49-6.54-.76-13.32,.26-19.96,.9-3.15,.3-4.67,3.64-2.85,5.69,1.89,2.13,3.96,4.41,6.43,5.63,9.07,4.48,18.45,8.11,29.12,7.47Zm64.5,4.74c2.69-.43,6.85-1.02,10.98-1.78,4.64-.86,8.31-3.5,11.44-6.96,1.28-1.41,1.52-2.83-.4-3.92-1.97-1.12-3.86-2.75-5.97-3.15-6.82-1.3-13.69-2.49-20.6-3-3.48-.26-7.06,1.32-10.62,1.59-5.01,.38-9.58,1.92-13.96,4.3-3.73,2.02-3.86,3.85-.39,6.31,8.48,5.99,18.18,6.48,29.52,6.62Zm-154.85-44.8l-.16,.62c-2.95,.14-5.93,.06-8.84,.5-1.38,.21-3.03,1.11-3.78,2.24-.46,.69,.31,2.57,.98,3.62,3.74,5.93,10.1,8.5,15.69,11.85,6.68,3.99,14.34,5.16,22,6.31,4.8,.72,8.7-.65,12.66-2.68,2.53-1.3,3.05-2.96,1.21-4.34-4.57-3.43-9.16-6.89-14.08-9.74-3.64-2.11-7.73-3.54-11.76-4.82-4.56-1.45-9.27-2.38-13.92-3.54Zm212.36,40.96c5.73-1.23,13.12-2.1,19.98-4.53,5.15-1.82,9.76-5.44,14.34-8.66,2.1-1.48,1.79-3.56-.48-4.84-1.74-.98-3.83-1.68-5.81-1.82-4.49-.33-9-.27-13.51-.3-2.04-.01-4.14-.13-6.12,.28-9.24,1.93-18.38,4.27-26.26,9.93-1.03,.74-1.84,1.81-2.74,2.73,.94,.95,1.77,2.07,2.85,2.82,4.87,3.4,10.78,2.56,17.76,4.38Zm-281.62-70.06c-.69,0-1.42-.14-2.06,.03-1.37,.36-3.08,.54-3.89,1.48-.46,.53,.35,2.54,.97,3.66,4.68,8.45,12.48,13.47,20.22,18.38,3.2,2.03,7.03,3.1,10.67,4.31,2.7,.89,5.54,1.66,8.35,1.78,2.36,.1,4.89-.49,7.1-1.4,2.61-1.06,2.98-2.89,1.49-5.05-3.27-4.73-7.19-8.8-12.17-11.65-3.43-1.96-7.03-3.62-10.47-5.56-6.31-3.56-13.13-5.2-20.22-5.98Zm-59.45-40.14c-2.56-.16-4.09,1.55-2.89,3.91,2.09,4.13,4.4,8.27,7.3,11.83,8.44,10.38,19.33,16.91,32.3,19.67,1.27,.27,2.74,0,4.02-.36,2.03-.57,2.7-2,1.5-3.9-2.12-3.36-4.2-6.74-6.52-9.96-4.52-6.26-10.85-10.49-17.1-14.58-5.57-3.64-11.34-7.46-18.62-6.62Zm435.42,71.34l-.02-.13c-2.25,.21-4.5,.45-6.75,.64-8.67,.73-16.73,3.74-24.32,7.73-4.55,2.39-8.55,5.88-12.64,9.1-1.24,.97-2.09,2.94,.08,3.89,4.06,1.78,8.21,3.45,12.84,2.43,4.13-.91,8.26-1.9,12.45-2.43,8.54-1.07,14.89-6.52,21.72-10.98,1.75-1.14,3.15-3.05,4.32-4.86,1.69-2.63,.74-4.58-2.36-5.1-1.74-.29-3.54-.2-5.31-.28Zm29.73-.46l.15,.33c4.17-.93,8.34-1.84,12.5-2.79,1.43-.33,2.99-.46,4.22-1.17,9.38-5.41,19.29-10.18,25.41-19.86,.75-1.19,1.23-3.18,.76-4.34-.37-.91-2.49-1.71-3.69-1.54-5.03,.71-10.09,1.52-15,2.81-7.86,2.06-14.29,7.02-20.71,11.74-3.75,2.76-6.87,6.4-10.21,9.72-1.52,1.5-1.06,3.51,1.08,4.2,1.75,.56,3.66,.63,5.49,.91Zm61.49-34.07c1.77-.46,4.27-.98,6.69-1.76,14.67-4.74,26.23-13.37,32.96-27.84,.55-1.17,.67-3.12,.06-4.11-.49-.79-2.55-1.22-3.64-.89-7.79,2.37-15.59,4.76-22.13,10.08-1.98,1.61-4.35,2.71-6.44,4.19-1.5,1.06-3.14,2.14-4.18,3.61-2.92,4.11-5.58,8.42-8.31,12.67-1.42,2.21-.98,3.15,1.59,3.61,.87,.15,1.75,.23,3.4,.43Z"/><path d="M315.72,875.62c1.08,.16,2.35,.05,3.36,.53,5.16,2.5,10.12,5.44,15.38,7.68,6.01,2.56,12.24,4.62,18.42,6.73,3.23,1.1,6.61,1.72,9.85,2.77,7.66,2.49,15.19,5.5,22.95,7.58,7.88,2.1,15.98,3.33,23.98,4.95,7.22,1.46,14.4,3.14,21.66,4.29,4.99,.79,10.09,.84,15.14,1.24,4.2,.33,8.39,.76,12.59,1,4.91,.28,9.84,.46,14.76,.58,8.96,.23,17.94,.77,26.89,.48,10.01-.32,20-1.41,29.99-2.17,.1,0,.2-.03,.29-.03,9.49,.05,18.54-3.12,27.94-3.92,5.57-.48,10.98-2.75,16.51-3.97,3.44-.76,7.07-.7,10.47-1.59,8.55-2.24,17.06-4.68,25.51-7.3,6.1-1.89,11.97-4.69,18.15-6.12,3.93-.91,7.23-2.77,10.78-4.31,4.95-2.14,10.13-3.76,15.08-5.9,5.5-2.38,11.18-4.58,16.19-7.8,9.27-5.95,19.86-9.44,28.4-16.84,3.92-3.4,9.4-4.88,14.04-7.47,2.3-1.28,4.33-3.08,6.44-4.69,3.3-2.51,6.4-5.37,9.95-7.43,1.45-.84,4.13-.52,5.77,.28,2.09,1.02,1.72,3.49,.81,5.34-1.98,4.01-1.38,8.33-1.97,12.5-.5,3.56-2.15,7.22-4.22,10.15-.83,1.17-4.24,.98-6.34,.6-6.08-1.08-12.08-2.6-18.13-3.86-2.73-.57-3.55,1.4-4.23,3.54-1.94,6.06-3.68,12.2-5.98,18.12-1.82,4.7-6.1,5.99-10.75,4.08-2.26-.93-4.68-1.45-7-2.25-2.31-.79-4.7-1.48-6.86-2.6-3.54-1.85-6.87-.7-7.72,3.33-1.41,6.67-4.54,12.49-7.92,18.23-1.61,2.74-3.77,3.46-7.15,2.08-5.02-2.04-10.01-4.17-14.9-6.5-5.35-2.55-7.08-1.94-9.85,3.33-2.67,5.09-5.58,10.05-8.55,14.96-2.24,3.71-4.55,4.12-8.41,1.97-5.43-3.03-10.85-6.07-16.34-8.98-3.82-2.03-4.36-1.49-6.67,2.29-3.32,5.43-6.81,10.8-10.74,15.78-2.89,3.66-5.06,3.31-8.87,.53-5.01-3.64-10.19-7.04-15.33-10.5-2.15-1.45-4.11-1.1-5.72,.97-3.41,4.37-6.88,8.69-10.2,13.13-3.09,4.12-6.98,4.99-10.92,1.77-4.41-3.6-8.46-7.65-12.86-11.26-1-.82-2.99-1.17-4.2-.76-1.8,.61-3.45,1.94-4.94,3.22-4.13,3.56-8.17,7.22-12.19,10.9-2.97,2.72-5.41,3.02-8.31,.2-3.34-3.25-6.33-6.87-9.49-10.31-1.48-1.61-2.8-3.48-4.57-4.64-1.04-.68-3.29-.8-4.2-.1-5.22,4.05-10.32,8.29-15.21,12.74-2.54,2.31-4.81,2.76-7.51,.31-4.55-4.13-9.08-8.19-11.71-14.12-2.16-4.86-5.27-5.31-9.59-2.34-2.89,1.99-5.92,3.77-8.82,5.74-1.79,1.21-3.52,2.52-5.18,3.92-2.81,2.36-5.1,2.36-7.24-.63-3.88-5.41-7.48-11.04-11.3-16.5-2.62-3.74-6.61-3.84-10.34-1.31-4.54,3.08-9.39,5.71-14.25,8.24-2.45,1.28-5.99-.61-7.46-3.72-2.29-4.83-4.43-9.73-6.64-14.6-2.18-4.81-4.15-6.47-8.85-4.12-4.04,2.02-8.37,3.46-12.3,5.68-6.31,3.55-10.53,1.19-13.46-4.62-.7-1.39-1.28-3.11-1.15-4.62,.41-4.78-2.16-8.17-4.64-11.66-2.12-2.98-5.07-3.35-8.26-1.6-5.75,3.16-12.01,4.38-18.49,3.62-2.58-.3-4-1.92-4.49-5.03-.94-5.99-2.51-11.9-4.24-17.71-.34-1.13-2.67-2.47-3.93-2.33-4.23,.48-8.37,1.71-12.58,2.43-3.25,.55-6.57,1.09-9.83,.95-1.29-.05-3.26-1.75-3.61-3.06-1.1-4.12-1.67-8.4-2.26-12.65-.41-2.96-.7-5.97-.68-8.95,0-1.24,.72-3.26,1.54-3.51,1.23-.39,3.1,.05,4.25,.83,10.87,7.37,21.55,15.04,32.49,22.3,7.12,4.72,14.52,9.05,21.95,13.26,3.41,1.93,7.2,3.16,10.81,4.71,2.51,1.08,3.73,2.88,3.94,5.77,.13,1.79,.27,4.96,2.73,4.44,2.55-.54,.17-2.98,.27-4.57,.01-.18,.08-.36,.28-1.14Zm6.73,20.1c2.96-1.63,5.79-3.1,8.51-4.77,.6-.37,.79-1.43,1.17-2.17-.86-.15-1.83-.63-2.57-.39-2.67,.88-5.3,1.91-7.87,3.08-.88,.4-1.52,1.36-2.27,2.06,.86,.62,1.72,1.25,3.03,2.2Zm90.47,16.68c-1.7-.36-2.71-.92-3.18-.62-2.95,1.88-5.83,3.9-8.6,6.04-.46,.35-.29,1.54-.41,2.33,.79,.02,1.71,.31,2.34,0,1.92-.96,3.82-2.02,5.53-3.32,1.36-1.03,2.42-2.45,4.32-4.43Zm-121.44-42.34l-.16-.31c-2.76,.94-5.58,1.76-8.25,2.9-.71,.3-1,1.62-1.49,2.48,1.01,.31,2.49,1.22,2.96,.84,2.64-2.11,5.56-2.79,8.8-2.79,.54,0,1.08-.88,1.62-1.36-.49-.54-.89-1.26-1.5-1.58-.54-.29-1.31-.14-1.98-.18Zm-31.49-18.83l.04-1.47c-1.11-.39-2.24-1.15-3.33-1.09-2.71,.16-5.43,.56-8.08,1.18-.82,.19-1.57,1.3-2.05,2.17-.17,.31,.49,1.59,.83,1.62,.88,.07,2-.05,2.65-.57,2.04-1.63,4.16-1.87,6.63-1.33,1.02,.23,2.2-.31,3.31-.5Zm98.88,57.25c1.56,.6,2.61,1.4,3.09,1.13,3.07-1.69,6.06-3.56,8.98-5.52,.4-.27,.52-1.53,.26-2.06-.19-.37-1.46-.59-1.91-.31-3.24,1.98-6.39,4.12-10.41,6.75Zm214.06,8.61c-.88-.84-1.29-1.24-1.71-1.64-1.16,1.33-2.34,2.65-3.42,4.04-.04,.05,1.31,1.36,1.36,1.32,1.22-1.09,2.35-2.28,3.77-3.72Zm40.75-7.45c-.79-1.12-1.25-1.76-1.71-2.41-.93,.9-1.97,1.72-2.68,2.77-.14,.21,1.04,1.32,1.6,2.02,.85-.72,1.69-1.45,2.78-2.39Zm-260.11-16.6c-.81,1.21-1.63,1.98-1.49,2.29,.45,.96,1.26,1.74,1.93,2.59,.44-.43,1.32-.97,1.24-1.25-.28-1.03-.88-1.98-1.69-3.63Zm205.83,19.97c-1.11-.78-1.78-1.61-2.37-1.56-.61,.05-1.14,.98-1.71,1.52,.6,.62,1.12,1.56,1.83,1.76,.44,.12,1.19-.86,2.25-1.72Zm-32.35,12.59c3.25,.69,3.56-.79,2.5-3.29-.83,1.1-1.67,2.19-2.5,3.29Zm112.21-34.29c-1.05-.8-1.59-1.53-2.15-1.55-.58-.02-1.19,.64-1.78,1,.5,.59,.92,1.45,1.55,1.68,.45,.16,1.2-.53,2.39-1.13Zm-189.33,27.95c.37,.41,.74,.82,1.11,1.23,.93-.89,1.86-1.77,2.79-2.66-.46-.28-1.14-.91-1.33-.78-.93,.62-1.72,1.45-2.56,2.2Z"/><path d="M576.14,86.92c-2.16-.58-4.31-1.21-6.49-1.71-1.49-.34-3.02-.54-4.54-.73-5.15-.64-10.31-1.23-15.47-1.86-5.66-.69-11.35-1.15-16.96-2.16-11.57-2.07-23.27-.64-34.9-1.54-8.49-.66-17.1-.03-25.64,.34-6.86,.3-13.7,1.02-20.54,1.68-7.42,.72-14.91,1.16-22.23,2.47-10.62,1.9-21.15,4.34-31.67,6.8-5.92,1.39-11.63,3.86-17.59,4.83-13.74,2.24-26.16,8.41-39.1,12.95-7.59,2.67-14.91,6.19-22.24,9.58-6.95,3.22-13.81,6.66-20.58,10.24-4.43,2.34-8.65,5.07-12.95,7.66-5.66,3.4-11.36,6.73-16.93,10.27-5,3.17-9.87,6.55-14.75,9.92-3.02,2.09-4.69,1.65-4.92-1.98-.23-3.64,.1-7.39,.7-11,.68-4.12,1.72-8.2,2.99-12.18,1.37-4.27,3.96-4.9,8.09-3.63,5.7,1.75,11.58,2.92,17.42,4.16,2.77,.59,4.53-.81,5.11-3.65,.87-4.2,1.63-8.43,2.62-12.6,.86-3.61,2.69-6.72,6.05-8.45,1.13-.58,2.76-.81,3.96-.47,6.42,1.83,12.8,3.86,19.16,5.9,2.66,.85,5.13-1.13,6.28-5.05,1.32-4.49,2.65-8.99,4.15-13.42,2.02-6,5.48-7.47,11.15-4.86,4.74,2.19,9.46,4.42,14.17,6.68,4.08,1.96,6.52,1.06,8.03-3.18,1.18-3.33,2.67-6.31,5.38-8.78,1.66-1.51,2.59-3.96,3.56-6.12,1.65-3.66,3.35-4.68,7.04-3.1,3.71,1.58,7.27,3.52,10.83,5.44,2.95,1.59,5.78,3.41,8.69,5.06,1.96,1.12,3.43,.23,4.53-1.45,3.38-5.14,6.78-10.26,10.05-15.47,2.97-4.75,6.46-5.61,10.73-2.25,3.18,2.5,6.12,5.32,9.37,7.72,2.12,1.57,4.5,2.89,6.94,3.82,.97,.37,2.82-.27,3.61-1.1,2.18-2.29,3.94-4.98,5.98-7.41,2.56-3.04,5.11-6.1,7.89-8.92,2.67-2.71,5.29-2.65,8.08-.15,4.44,3.97,8.9,7.92,13.26,11.98,1.79,1.67,3.59,1.53,5.37,.34,1.72-1.16,3.29-2.55,4.87-3.9,4.2-3.61,8.3-7.35,12.57-10.87,1.91-1.57,4.3-1.28,5.98,.34,4.12,3.99,8.02,8.22,11.99,12.38,.69,.72,1.24,1.57,1.92,2.29,2.09,2.22,4.24,2.53,6.51,.59,4.82-4.12,9.61-8.29,14.23-12.65,3.41-3.21,5.43-3.14,8.49,.62,3.82,4.7,7.99,9.12,11.58,13.99,2.94,3.98,3.48,4.59,7.86,3.43,.71-.19,1.37-.7,1.97-1.18,3.28-2.65,6.46-5.41,9.81-7.96,1.72-1.31,3.71-2.25,5.59-3.35,2.59-1.52,4.35-1.25,5.99,1.34,3.29,5.2,6.55,10.43,9.57,15.79,2.76,4.9,5.36,5.54,10.68,2.34,4.89-2.94,9.83-5.79,14.81-8.57,2.89-1.61,4.2-.93,6.36,1.47,3.93,4.37,4.85,10.22,7.7,15.07,1.33,2.27,3.09,4.52,5.2,5.96,1.17,.8,3.64,.38,5.19-.3,4.7-2.05,9.23-4.49,13.82-6.79,4.97-2.49,8.47-1.29,10.55,3.87,2.12,5.27,4.12,10.59,6.05,15.93,1.52,4.2,2.56,4.79,6.73,3.56,5.84-1.73,11.7-3.4,17.56-5.07,2.99-.85,7.37,1.19,8.19,4.18,1.56,5.77,2.94,11.61,4.12,17.48,.64,3.16,1.43,4.37,4.58,4.19,5.2-.3,10.4-.84,15.15-3.28,3.79-1.94,7.28-.96,10.66,.94,.76,.43,1.58,1.45,1.67,2.29,.86,7.85,1.6,15.71,2.31,23.57,.16,1.73-.92,2.49-2.42,2.09-1.49-.4-3.01-1.01-4.28-1.87-7.03-4.77-13.87-9.82-21-14.41-4.88-3.15-10.17-5.63-15.21-8.54-5.66-3.27-11.16-6.84-16.87-10.01-4.83-2.68-9.77-5.19-14.82-7.38-13.17-5.7-26.34-11.4-39.68-16.67-6.2-2.45-12.78-3.86-19.17-5.81-2.06-.63-4.06-1.46-6.08-2.23-.55-.21-1.06-.67-1.61-.71-10.18-.75-19.53-5.14-29.44-7.03-1.06-.2-2.16-.16-3.24-.23l-.11,.48Zm-87.13-13.84c.91-.28,1.23-.3,1.46-.46,3.24-2.31,6.54-4.55,9.64-7.04,.44-.35,.15-2.06-.26-2.9-.22-.46-1.79-.84-2.13-.54-3.06,2.78-6.02,5.68-8.9,8.66-.32,.33,.1,1.41,.19,2.29Zm251.29,64.78c-3.23,0-5.88-.13-8.52,.05-1.63,.11-3.26,.6-4.84,1.08-.42,.13-.91,.88-.92,1.35,0,.44,.52,1.15,.94,1.28,4.45,1.37,8.72,1.08,12.58-1.82,.41-.31,.46-1.13,.75-1.94Zm-155.42-64.98l-.44-1.49c-.96,.16-2.07,.05-2.86,.52-2.86,1.7-5.64,3.56-8.4,5.42-.7,.47-1.23,1.2-1.83,1.81,1,.34,2.36,1.28,2.95,.91,3.63-2.23,7.08-4.75,10.59-7.18Zm-170.6-.11c-.26-.5-.45-1.24-.68-1.25-.62-.04-1.53,.02-1.86,.42-2.14,2.7-4.21,5.46-6.13,8.32-.34,.51,.15,1.59,.25,2.4,.69-.23,1.59-.27,2.02-.74,1.73-1.88,3.38-3.85,4.91-5.91,.68-.92,.99-2.13,1.48-3.24Zm209.84,9.16c-1.04,.38-1.89,.62-2.68,.99-2.27,1.09-4.57,2.16-6.76,3.42-.76,.44-1.21,1.4-1.81,2.13,.92,.34,2.04,1.2,2.71,.93,3.17-1.29,6.25-2.82,9.28-4.43,.48-.25,.79-1.34,.72-1.98-.05-.4-.96-.71-1.47-1.06Zm-329.51,32.66c-.39-.38-1.09-1.21-1.2-1.13-.84,.57-1.92,1.17-2.25,2.04-1.03,2.69-1.85,5.47-2.54,8.27-.21,.84,.29,1.86,.46,2.8,.83-.55,2.14-.92,2.41-1.67,1.17-3.26,2.04-6.64,3.12-10.31Zm-35.51,20.71c-.49-.57-1.06-1.24-1.64-1.91-.67,.67-1.62,1.22-1.95,2.03-.86,2.15-1.48,4.4-2.15,6.62-.2,.66-.48,1.41-.34,2.02,.22,.94,.78,1.79,1.19,2.68,.71-.76,1.69-1.39,2.08-2.3,.73-1.69,1.1-3.54,1.63-5.32,.34-1.14,.69-2.27,1.16-3.82Zm406.5-38.76c-1.69,.33-2.95,.35-4.04,.82-2.52,1.08-4.99,2.31-7.4,3.63-.72,.4-1.17,1.31-1.75,1.99,.89,.26,1.99,.98,2.63,.69,3.28-1.52,6.46-3.26,9.62-5.02,.38-.21,.46-.98,.94-2.1Zm-135.69-22.16c4.66-.3,8.19-3.46,11.33-6.93,.5-.56,.42-1.67,.61-2.52-.86,.23-1.88,.24-2.54,.74-2.66,2.02-5.24,4.15-7.77,6.35-.7,.61-1.1,1.57-1.63,2.36Zm-164.61,17.03c4.16-.04,9.1-6.74,7.85-9.86-.19-.46-.85-1.07-1.22-1.03-.55,.07-1.22,.56-1.53,1.07-1.31,2.15-2.54,4.35-3.74,6.57-.49,.91-.81,1.92-1.36,3.25Zm85.33-19.55l1.03,.23c1.48-1.75,2.98-3.49,4.39-5.3,.16-.2-.16-1.15-.43-1.25-.57-.21-1.52-.37-1.85-.06-1.33,1.28-2.59,2.67-3.62,4.19-.28,.41,.29,1.44,.48,2.18Zm-117.86,23.18l-.84-.44c-2.07,.87-3.41,2.43-3.54,4.91-.03,.56,.42,1.48,.86,1.64,.43,.16,1.47-.29,1.66-.73,.75-1.74,1.26-3.58,1.87-5.38Zm366.26,24.44c1.26-.95,2.4-1.82,3.53-2.68-.74-.48-1.68-1.53-2.18-1.34-1.33,.5-2.48,1.52-3.7,2.34,.62,.45,1.24,.9,2.34,1.69Zm-231.19-47.86c-.99,1.15-1.49,1.72-1.99,2.3,.87,.67,1.68,1.46,2.64,1.94,.23,.11,1.45-1.06,1.37-1.26-.4-.91-1.09-1.69-2.02-2.98Zm41.11-1.87l-1.38,.81c-.46,.61-1.43,1.42-1.28,1.77,.28,.72,1.16,1.63,1.81,1.65,.62,.02,1.71-.95,1.79-1.59,.1-.83-.58-1.76-.93-2.65Zm122.04,22.29c-.63,1.25-1.33,2.07-1.16,2.41,.43,.82,1.26,1.41,1.93,2.1,.49-.59,1.5-1.34,1.38-1.72-.27-.85-1.11-1.51-2.16-2.78Zm-243.81-5.15c-1.31-.73-2.06-1.49-2.78-1.45-.59,.03-1.14,.99-1.71,1.53,.68,.56,1.31,1.42,2.07,1.57,.52,.1,1.22-.79,2.42-1.65Zm306.75,31.71c-.16-.39-.32-.79-.48-1.18-1.24,.57-2.49,1.14-3.73,1.72,.24,.48,.41,1.31,.73,1.38,1.67,.36,3.02-.08,3.48-1.91Zm-144.15-44.76c-.57,.94-1.3,1.68-1.15,2.03,.3,.7,1.05,1.58,1.67,1.64,.58,.05,1.25-.88,1.87-1.38-.66-.63-1.33-1.27-2.39-2.29Zm-277.87,63.79l-.36-1.65c-.99,.27-2.02,.45-2.95,.88-.16,.07,.12,1.14,.2,1.75l3.11-.98Zm470.29,12.62l-1.38,.42c.18,.94,.24,1.93,.62,2.78,.08,.19,1.29-.14,1.97-.24-.4-.99-.81-1.98-1.21-2.97Z"/><path d="M277.88,162.38c2.26,.6,4.52,1.19,6.79,1.79,3.52,.93,7.01,1.98,10.57,2.74,2.52,.53,4.86-1.75,5.65-4.64,1.61-5.86,3.32-11.7,5.22-17.47,.3-.9,1.84-2,2.76-1.95,2.62,.14,5.32,.52,7.8,1.35,3.45,1.15,6.72,2.81,10.09,4.22,3.42,1.43,4.32,.79,6.44-2.33,3.36-4.94,5.51-10.36,7.36-15.99,1.07-3.28,4.95-4.58,8.44-2.96,4.39,2.03,8.89,3.92,13.04,6.39,5.01,2.99,7.38,.49,9.27-3.58,1.47-3.15,2.65-6.44,4.02-9.64,.39-.91,.94-1.77,1.5-2.59,3.43-5.03,5.53-5.47,10.77-2.28,3.81,2.32,7.54,4.77,11.42,6.96,4.14,2.33,5.11,1.99,7.8-1.77,3.36-4.7,6.73-9.4,10.18-14.02,2.23-2.98,4.12-3.2,7.06-1.04,4.39,3.23,8.77,6.48,13.14,9.73,2.48,1.84,4.46,1.8,6.51-.57,3.57-4.12,7.08-8.31,10.4-12.65,2.6-3.41,6.25-3.91,9.37-1.16,4.59,4.05,9.22,8.06,14.08,11.77,.94,.72,3.48,.56,4.42-.24,4.36-3.7,8.49-7.68,12.55-11.72,3.76-3.75,5.58-3.64,9.2,.19,3.9,4.12,8.01,8.05,12.25,11.8,1.95,1.73,4.28,1,6.2-.59,4.05-3.36,8.05-6.78,12.1-10.14,3.62-3,6.45-2.8,9.36,.94,2.69,3.46,5.11,7.13,7.71,10.67,.82,1.12,1.67,2.38,2.8,3.07,.96,.59,2.68,1.05,3.5,.57,5.09-3,10.18-6.04,14.94-9.53,3.87-2.83,6.73-2.7,9.37,1.27,3.41,5.14,6.86,10.27,10.35,15.36,1.55,2.27,3.59,2.5,5.54,.63,5.01-4.8,11.89-5.64,17.7-8.77,2.65-1.43,4.14,1.04,5.15,3.14,2.37,4.94,4.6,9.95,6.88,14.94,1.4,3.05,2.58,3.55,5.57,2.35,5.57-2.24,11.14-4.48,16.72-6.71,3.46-1.38,5.47-.77,6.96,2.7,1.72,4.01,3,8.22,4.52,12.32,.66,1.76,1.24,3.61,2.25,5.16,1.44,2.22,3.55,2.96,6.2,2.07,5.22-1.75,10.49-3.34,15.72-5.05,2.56-.84,4.9-.66,5.95,2.14,1.56,4.18,2.78,8.49,4.12,12.76,.15,.47,.1,1,.2,1.49,1.53,6.96,3.61,8.2,10.45,6.55,4.58-1.1,9.2-2.02,13.82-2.94,2.85-.57,5.04,.61,5.64,3.46,.71,3.35,.88,6.82,1.37,10.22,.25,1.75,.49,3.54,1.1,5.18,.96,2.56,2.48,5.46,.41,7.58-2.24,2.3-5.14,.42-7.27-1-6.35-4.22-12.35-8.99-18.79-13.03-6.77-4.24-13.9-7.87-20.87-11.78-3.27-1.84-6.48-3.81-9.79-5.59-6.17-3.32-12.27-6.84-18.63-9.75-7.42-3.39-15.06-6.33-22.67-9.25-4.68-1.8-9.49-3.25-14.27-4.77-7.31-2.32-14.63-4.57-21.95-6.85-1.03-.32-2.03-.79-3.08-1.02-9.05-1.92-18.05-4.18-27.17-5.59-13.01-2-26.08-3.73-39.19-4.87-11.55-1-23.19-1.56-34.77-1.33-12.18,.24-24.34,1.53-36.5,2.58-7.25,.62-14.49,1.47-21.69,2.55-7,1.05-13.99,2.27-20.88,3.88-7.66,1.79-15.32,3.73-22.75,6.29-6.21,2.14-12.73,2.76-18.83,5.81-8.33,4.17-17.6,6.35-26.1,10.22-14.17,6.45-28.56,12.53-41.73,21.09-7.54,4.9-15.21,9.6-22.8,14.42-1.16,.74-2.14,1.77-3.29,2.54-1.13,.76-2.31,1.61-3.59,1.96-2.86,.79-4.2-.47-3.81-3.44,.78-5.93,1.61-11.85,2.46-17.77,.64-4.46,2.56-6.06,7.25-6.47Z"/><path d="M258.86,805.87c0-2.37-.13-4.75,.09-7.1,.05-.6,1.31-1.66,1.78-1.55,1.88,.46,3.88,.99,5.45,2.07,6.53,4.46,12.79,9.35,19.39,13.69,12.49,8.21,25.55,15.36,38.77,22.3,9.92,5.21,20.41,8.93,30.39,13.92,5.16,2.58,10.91,3.93,16.42,5.75,7.28,2.4,14.58,4.74,21.9,7.03,2.34,.73,4.75,1.3,7.15,1.77,7.98,1.59,15.97,3.15,23.97,4.62,6.56,1.2,13.13,2.41,19.74,3.32,3.99,.55,8.12,.14,12.06,.87,7.79,1.43,15.62,1,23.44,1.04,4.78,.02,9.57-.34,14.35-.36,2.94-.01,5.9,.54,8.84,.42,6.49-.25,12.97-.69,19.44-1.19,6.08-.47,12.19-.78,18.2-1.73,11.74-1.87,23.49-3.84,35.11-6.35,7.25-1.57,14.29-4.16,21.4-6.37,7.6-2.36,15.29-4.51,22.73-7.32,7.54-2.85,14.87-6.3,22.21-9.66,7.79-3.56,15.56-7.19,23.23-11,7.07-3.51,14.03-7.26,20.98-11.03,1.53-.83,2.7-2.31,4.16-3.3,2.51-1.69,5.11-3.23,7.67-4.84,2.42-1.52,4.86-2.99,7.24-4.57,2.14-1.42,4.1-3.15,6.34-4.36,1.05-.57,2.9-.75,3.78-.16,.85,.57,1.42,2.43,1.26,3.59-.8,5.61-1.89,11.18-2.89,16.76-.94,5.24-3.6,6.96-8.78,5.77-4.87-1.12-9.74-2.22-14.61-3.29-2.46-.54-4.53-.16-5.45,2.65-1.68,5.11-3.51,10.17-5.02,15.34-1.76,6.05-6.07,7.58-11.78,4.9-4.37-2.05-9.24-3.07-13.95-4.31-2.15-.56-3.19,.86-4.07,2.92-2.55,6-5.35,11.89-8.2,17.75-1.04,2.15-3.06,2-4.9,1.23-5.54-2.31-11.08-4.62-16.52-7.13-2.49-1.15-4.61-1.32-6.2,1.17-1.93,3-3.74,6.09-5.46,9.21-.56,1.01-.85,2.25-1.01,3.42-.74,5.44-5.7,8.11-10.48,5.47-2.25-1.24-4.22-3.02-6.5-4.17-3.23-1.63-6.61-2.99-9.99-4.3-1.98-.77-3.32,.29-4.36,2.05-2.62,4.44-5.19,8.93-8.07,13.2-3.11,4.61-6.63,4.76-10.83,1.33-3.84-3.13-7.94-5.95-12.04-8.74-2.16-1.47-6.06,.23-8.3,3.16-2.88,3.78-5.8,7.54-8.86,11.17-2.69,3.19-6.95,3-10.2-.08-3.66-3.47-7.32-6.94-11.16-10.2-2.4-2.04-4.04-1.58-6.14,.64-2.72,2.87-5.64,5.56-8.48,8.33-.92,.9-1.86,1.76-2.71,2.72-2.37,2.66-5.08,3.13-7.77,.83-4-3.41-7.8-7.06-11.67-10.62-3.63-3.34-5.44-3.46-9.23-.46-3.8,3-7.61,5.99-11.32,9.11-2.68,2.25-5.14,2.24-7.4-.49-2.86-3.44-5.62-6.98-8.42-10.48-.19-.23-.31-.52-.5-.74-5.24-5.97-5.64-6.78-11.6-1.99-3.77,3.02-7.96,5.49-11.97,8.21-2.8,1.9-5.7,.95-7.36-2.16-2.35-4.39-4.73-8.78-7.38-12.99-2.7-4.3-5.05-4.76-9.48-2.32-4.42,2.43-8.82,4.9-13.23,7.35-3.18,1.77-5.36,.89-6.96-2.32-2.71-5.42-5.59-10.76-8.55-16.04-1.52-2.71-4.02-2.54-6.5-1.57-4.48,1.75-8.94,3.59-13.42,5.34-1,.39-2.06,.71-3.12,.88-3.47,.54-4.11-.22-5.23-3.59-1.79-5.37-3.83-10.67-6.07-15.87-1.14-2.65-3.6-3.72-6.41-2.88-4.71,1.41-9.36,3.06-14.05,4.53-5.02,1.58-6.81,.57-8.12-4.61-1.2-4.74-2.35-9.49-3.49-14.24-.9-3.76-3.96-5.69-7.92-4.81-4.9,1.08-9.78,2.22-14.66,3.35-4.37,1.01-6.52-.64-7.03-5.11-.49-4.27-1.22-8.51-1.85-12.76l.18-.02Z"/><path d="M966.49,505.85c-.91-.45-2.19-.94-3.34-1.65-4.44-2.74-8.81-5.6-13.26-8.32-2.52-1.54-4.87-1.19-7.41,.5-5.32,3.53-10.76,6.9-16.38,9.91-1.25,.67-3.67,.08-5.09-.75-4.75-2.78-9.31-5.93-13.92-8.96-3.17-2.08-6.02-1.58-8.94,.7-3.5,2.74-7.2,5.2-10.79,7.82-4.2,3.06-8.36,2.44-12.38-.23-2.55-1.69-4.87-3.73-7.37-5.5-2.1-1.49-4.27-2.87-6.47-4.21-2.43-1.49-3.7-3.98-2.51-5.65,1.7-2.38,3.92-1.47,5.8-.31,3.61,2.23,7.51,4.22,10.51,7.14,4.45,4.34,8.6,3.08,11.98-.36,3.97-4.05,8.96-5.71,13.76-7.9,3.15-1.43,6.14-.87,9.09,1.44,3.8,2.97,7.87,5.71,12.15,7.88,1.5,.76,4.27,.03,5.96-.93,5.23-2.96,10.14-6.48,15.34-9.49,1.3-.75,3.43-.96,4.81-.43,3.19,1.21,6.25,2.87,9.19,4.64,2.94,1.77,5.64,3.96,8.52,5.85,2.1,1.38,4.18,.79,6.08-.53,4.12-2.86,8.11-5.94,12.36-8.59,1.35-.84,3.42-1,5.04-.73,2.46,.4,3.27,3.33,1.19,4.7-7.12,4.69-13.24,11.11-21.76,13.44-.57,.16-1.14,.28-2.16,.53Z"/><g><path d="M17.48,539.26c12.05,1.23,23.37,6.18,34.12,12.59,2.92,1.74,3.38,5.04,2.8,8.32-1.31,7.38-3.3,7.51-4.53,15.7-.48,3.18-1.78,12.18-.09,24.3,.89,6.37,2.41,10.45,4.28,15.63,3.42,9.5,8,18.45,15.13,25.75,4.96,5.67,.68,10.22-11.37,25.67-4.83,5.7-14.91,15.58-20.1,17.97-1.62,.75-3.26,.19-6.49-6.54-2.85-5.93-7.29-19.88-8.34-24.29s-.18-7.28,3.44-9.36c7.11-4.39,12.76-8.74,14.89-11.44,5.34-6.79,4.93-13.19,4.32-17.41-.84-5.81-1.81-11.62-3.17-17.33-1.78-7.47-6.45-13.36-12.49-17.38-3.91-2.6-9.16-3.3-13.91-4.31-2.19-.46-3.12,1.85-1.8,5.57,.88,2.49,2.93,4.85,4.66,6.88,4.17,4.92,6.84,8.09,8.38,15.12,1.14,5.2,1.59,13.01-2.36,19.04-1.8,2.75-6.88,2.88-9.06-.08-1.45-1.97-2.13-4.63-2.81-7.09-.93-3.34-4.33-19.27-6.63-34.99-2.34-15.95-3.58-31.67-3.68-33.73-.22-4.45,.52-9.07,14.85-8.59Z"/><path d="M85.29,617.84c-.01,5.48-.64,9.89-2.14,15.1-1.42,4.93-6.68,8.91-12.49,4.08-6.9-5.74-10.66-13.34-13.27-21.76s-3.83-13.86-4.55-20.92c-.53-5.18-.53-8.76,.2-13.98,.35-2.49,1.49-6.69,3.01-8.69,3.97-5.23,8.49-3.61,14.61,3.65,4.01,4.76,8.75,13.56,10.6,19.5,.72,2.32,1.36,4.48,2.27,7.76,.37,1.33,1.78,7.42,1.76,15.26Z"/><path d="M74.02,730.04c11.58-3.54,23.94-3.37,36.34-1.64,3.36,.47,5.07,3.33,5.81,6.58,1.66,7.31-.13,8.2,1.92,16.23,.79,3.11,3.09,11.92,9.35,22.43,3.29,5.53,6.28,8.69,10.01,12.74,6.84,7.43,14.54,13.9,23.94,17.86,6.77,3.3,4.6,9.15-.52,28.07-2.24,7.12-7.69,20.15-11.55,24.37-1.2,1.32-2.93,1.44-8.53-3.51-4.93-4.36-14.44-15.49-17.12-19.15s-2.99-6.64-.46-9.97c4.85-6.8,8.37-13.01,9.28-16.32,2.28-8.33-.57-14.07-2.77-17.72-3.03-5.03-6.18-10.01-9.65-14.74-4.54-6.19-11.14-9.81-18.26-11.17-4.61-.88-9.72,.51-14.5,1.43-2.19,.42-2.15,2.92,.5,5.83,1.78,1.96,4.58,3.33,6.97,4.54,5.76,2.91,9.44,4.8,13.59,10.69,3.07,4.35,6.51,11.37,5.21,18.46-.59,3.23-5.22,5.32-8.38,3.44-2.1-1.25-3.76-3.44-5.34-5.44-2.16-2.72-11.47-16.08-19.7-29.67-8.34-13.79-15.59-27.8-16.49-29.66-1.93-4.01-3.05-8.56,10.35-13.68Z"/><path d="M167.01,776.14c2.12,5.05,3.25,9.37,3.89,14.74,.61,5.09-2.69,10.81-9.93,8.61-8.59-2.61-15-8.15-20.68-14.9s-8.91-11.28-12.31-17.51c-2.5-4.57-3.89-7.86-5.24-12.96-.64-2.43-1.23-6.75-.6-9.18,1.63-6.36,6.43-6.63,14.88-2.31,5.54,2.83,13.33,9.11,17.34,13.86,1.57,1.85,3,3.6,5.11,6.27,.85,1.08,4.52,6.15,7.55,13.38Z"/><path d="M37.38,513.54c2.56-.15,5.13,.02,7.7-.08,9.84-.35,19.69-.87,29.53-1.09,7.88-.18,15.77,0,23.65-.05,1.46,0,2.92-.45,4.39-.53,2.42-.14,4.86-.14,7.28-.23,3.43-.12,6.95,.17,10.28-.48,7.58-1.49,13.54,3.46,13.31,11.32-.14,4.66,.69,9.36,1.2,14.03,.48,4.42-1.85,8.34-6.07,9.18-5.02,1-10.12,1.56-15.16,2.41-3.65,.61-7.35,1.09-10.88,2.15-3.55,1.07-5.62,4.44-6.71,7.84-1.75,5.5-2.83,15.33,.67,32.75,3.24,16.11,4.23,19.63,6.23,25.48,1.66,4.85,3.99,9.52,9.2,11.09,2.04,.61,5.39,.44,7.41-.25,3.53-1.21,6.97-2.74,10.49-3.98,3.42-1.21,6.92-2.19,10.37-3.32,.9-.29,1.77-.66,2.59-1.11,5.17-2.87,9.13-1.5,11.13,3.99,1.23,3.37,2.21,6.84,3.4,10.23,.79,2.26,1.69,4.48,2.64,6.68,1.34,3.1,.76,5.2-2.06,6.83-1.71,.99-3.5,1.83-5.14,2.93-1.21,.81-2.74,1.72-3.23,2.96-1.83,4.66-7.9,8.27-10.1,9.7-1.42,.92-3.97,1.56-5.07,.04-1.2-1.66,1.31-3.74,2.4-4.71,1.98-1.76,2.73-3.42,2.19-4.55-.97-2-2.83-1.65-4.87-.81-1.24,.51-5.17,1.13-6.01-.66-.93-1.98,1.52-3.25,2.76-3.85,1.97-.95,7.55-2.22,9.58-2.12,1.32,.06,3.43,.35,4.75,.93,2.7,.81,6.66,.32,8.41-1.9,1.9-2.4,.68-4.75-.67-7.15-1.35-2.41-2.57-5.04-3.13-7.73-.99-4.74-3.67-6.86-9.22-4.78-3.87,1.45-7.75,2.86-11.57,4.43-4.99,2.05-9.95,4.19-14.87,6.4-4.83,2.17-7.97,5.8-9.82,10.96-3.61,10.04-8.84,19.16-16.45,26.68-2.82,2.79-5.83,5.38-8.82,7.98-1.82,1.58-2.33,3.13-1.16,5.5,1.72,3.47,3.11,7.13,4.51,10.75,1.75,4.51,5.59,6.45,10.31,5.73,10.28-1.55,20.56-2.17,30.6,1.68,3.86,1.48,7.74,3.02,11.75,3.91,5.34,1.19,10.53,.35,15.35-2.61,5.9-3.62,12-6.9,17.86-10.57,2.91-1.83,5.55-4.15,8.19-6.39,1.34-1.13,1-2.33,.09-3.94-1.71-3.01-3.22-5.25-4.98-7.95-3.37-5.17-7.02-7.8-11.75-1.66-1.88,2.44-3.7,5.08-6.07,6.91-2.07,1.6-4.85,2.31-7.4,3.13-.65,.21-1.81-.14-2.34-1.06-.63-1.09,.39-2.09,1-2.85,.98-1.22,2.45-2.04,3.37-3.3,1.43-1.94,.6-3.61-1.79-3.53-1.3,.04-2.62,.71-3.87,1.22-1.48,.61-2.99,.95-3.67-.53-.89-1.94,.8-3.38,1.54-3.94,4.77-3.63,10.08-4.27,15.95-3.25,2.2,.38,4.84-.5,7.03-1.53,2.86-1.35,6.3-.45,8.2,2.08,1.4,1.86,2.67,3.82,3.87,5.81,2.16,3.58,3.98,7.38,6.21,10.91,1.66,2.63,1.74,5.07-.6,6.96-3.72,3-7.72,5.63-11.6,8.42-6.19,4.46-14.3,6.19-18.54,13.34-.79,1.33-1.19,3.51-.72,4.93,3.29,9.84,8.91,18.2,14.91,26.69,7.48,10.58,22.93,25.03,31.86,27.32,1.5,.49,3.97-.34,5.31-1.43,6.89-5.66,13.55-11.61,20.3-17.44,2.27-1.96,5.87-2.16,8.12,.1,5.82,5.83,11.47,11.83,17.03,17.92,1.63,1.79,.49,4.18-2.19,7.65-3.98,5.14-15.23,18.2-24.32,28.24-12.27,13.56-50.04,54.11-54.18,58.44-1.82,1.91-6.89,6.06-9.84,4.02-3.73-2.58,.28-8.69,3.63-12.84,5.29-6.56,22.32-25.42,21.25-50.3-1.25-29.22-9.66-40.3-20.93-57.24-9.22-13.86-30.52-41.73-52.06-43.25-7.89-.56-20.55,2.11-29.17,6.33-5.56,2.73-15.94,8.78-20.44,10.89-1.56,.73-4.07,.98-4.81-.33s.25-2.38,1.72-3.16c5.45-2.9,10.88-5.85,16.34-8.72,4.8-2.52,5.72-5.63,3.22-10.39-1.34-2.55-2.24-5.33-3.5-7.93-.81-1.68-1.72-3.39-2.92-4.79-1.48-1.71-3.33-1.92-5.62-1.07-5.67,2.11-11.47,3.89-17.22,5.77-.03,0-.06,.02-.09,.03-1.42,.33-4.11,1.18-5.01-1.13-.61-1.55,1-2.55,2.32-3.29,3.07-1.72,20.41-6.72,25.29-8.79,8.36-3.54,16.3-10.26,23.52-23.23,12.19-21.93-1.2-55.54-3.46-64.19-5.09-19.47-12.42-36.82-21.47-46.85s-28.63-21.23-42.86-21.98c-7.25-.38-14.49-1.25-21.7-2.21-1.32-.17-3.09-1.64-3.43-2.86-.24-.88,1.38-3.15,2.47-3.4,3.88-.88,9.5-1.1,13.35-1.47m192.97,269.89c.19-4.19,1.39-8.54,5.13-12.21,2.59-2.54,11.77-3.97,17.22-1.04,1.73,.93,3.43,1.98,5.26,2.64,.5,.18,1.09,.13,1.69,.03,.76-.12,1.21-.92,.94-1.64-.18-.47-.39-.92-.72-1.24-1.41-1.39-3.02-2.57-4.6-3.77-2.37-1.81-6.22-1.87-9.97-1.65-8.72,.78-12.88,4.42-16.37,12.57-2.76,6.44-.4,16.45,5.01,20.72,.49,.38,1.21,.46,1.96,.49s1.36-.65,1.25-1.4c-.08-.54-.2-1.05-.45-1.49-.79-1.37-1.54-2.64-2.93-3.75-2.5-2.24-3.56-5.08-3.42-8.26Zm-83.45-265.54c-.86-.12-1.57,2.13-1.75,3.62-.79,6.67-1.42,9.42-3.83,12.62-2.67,3.54-7.79,4.58-14.59,4.48-6.15-.09-11.33-7.51-12.81-13.08-.67-2.5-1.35-5.03-2.82-4.84-1.1,.14-1.53,1.27-.78,4.35,1.38,5.69,5.64,11.21,9.15,14.22,6.02,5.16,20.89,1.78,24.59-3.53,2.31-3.31,4.14-9.08,4.18-13.78,.03-2.83-.53-3.97-1.33-4.08Zm105,265.5c1.17,.36,2.6,0,3.38-1.27,.51-.83,.43-2.71-.98-3.83-1.7-1.34-3.57-2.17-5.72-3.06-.99-.41-2.39-.09-2.72,.27-.79,.88-.33,2.11,.54,3.09,1.45,1.65,4.19,4.39,5.5,4.79Zm-10.8,.03c-.93-.17-1.53,.36-1.56,1.16-.1,2.36,.91,3.85,2.15,5.24,1.04,1.17,2.93,1.83,3.79,1.07,1.07-.95,.79-2.5,.08-3.74-1.12-1.97-2.02-3.29-4.47-3.73Zm-115.08-259.55c0-1.58,0-2.52-.29-3.4-.34-1.02-1.15-2.02-2.82-1.61-1.76,.43-1.43,1.73-1.41,2.55,.04,1.06,.14,1.66,.56,2.89,.58,1.72,1.46,3.56,2.68,3.31,1.38-.29,1.28-2.72,1.28-3.74Zm7.85-3.99c-.18,.94-.23,2.25,.3,3.8,.41,1.21,.7,2.37,1.54,2.37,1.74,0,2.07-2.24,2.38-3.59,.11-.49,.19-.89,.18-1.73,0-1.01-.13-2.94-2.35-2.84-1.65,0-1.92,1.26-2.06,1.98Z"/><path d="M128.04,560.33c3.19-2.34,7.78-3.33,9.57,1.58,2.21,11.65,4.87,23.03,9.98,43.09,1.08,4.25-.58,6.23-2.68,6.41-8.1,.69-20.46-3.85-24.88-24.07-3.72-19.67,5.61-25.25,8-27Z"/><path d="M180.4,703.26c2-3.41,5.83-6.14,9.41-2.34,6.63,9.82,13.58,19.22,26.21,35.63,2.67,3.47,1.93,5.95,.07,6.94-7.17,3.84-20.31,4.56-32.37-12.27-11.2-16.59-4.83-25.41-3.33-27.96Z"/></g><g><path d="M164.52,138.67c6.96,9.91,10.64,21.7,12.85,34.03,.6,3.34-1.59,5.86-4.45,7.57-6.44,3.85-7.83,2.43-14.83,6.87-2.71,1.72-10.37,6.64-18.42,15.86-4.23,4.85-6.31,8.67-9,13.47-4.94,8.81-8.7,18.13-9.54,28.3-1.03,7.46-7.27,7.21-26.84,8.23-7.46,.09-21.54-1.05-26.75-3.41-1.63-.74-2.28-2.34,.69-9.19,2.61-6.04,10.23-18.53,12.88-22.22s5.38-4.91,9.33-3.54c7.97,2.5,14.97,3.91,18.4,3.75,8.62-.42,13.2-4.92,15.98-8.14,3.84-4.44,7.59-8.99,11.01-13.75,4.48-6.24,5.87-13.63,4.95-20.83-.59-4.66-3.5-9.08-5.86-13.34-1.08-1.96-3.44-1.14-5.39,2.29-1.31,2.3-1.74,5.39-2.15,8.03-.98,6.38-1.63,10.47-5.94,16.24-3.18,4.27-8.78,9.72-15.93,10.69-3.25,.44-6.68-3.31-5.87-6.9,.54-2.39,2.1-4.64,3.51-6.77,1.91-2.9,11.72-15.9,22.08-27.94s21.58-23.46,23.07-24.89c3.21-3.08,7.19-5.56,16.22,5.59Z"/><path d="M149.58,241.39c-4.14,3.58-7.89,6-12.8,8.28-4.65,2.16-11.11,.8-11.26-6.76-.18-8.97,3.09-16.79,7.74-24.29,4.88-7.86,7.95-11.98,12.82-17.14,3.57-3.79,6.27-6.14,10.69-9.01,2.11-1.37,6.03-3.26,8.54-3.43,6.55-.42,8.3,4.05,6.82,13.43-.97,6.15-4.52,15.49-7.79,20.79-1.28,2.06-2.49,3.97-4.38,6.8-.76,1.15-4.44,6.2-10.37,11.33Z"/><path d="M57.44,306.39c10.26,6.43,18.23,15.87,25.05,26.37,1.85,2.85,.81,6.01-1.16,8.7-4.44,6.04-6.28,5.28-11,12.09-1.83,2.64-6.98,10.14-10.82,21.76-2.02,6.11-2.45,10.44-3.07,15.91-1.13,10.03-.98,20.09,2.19,29.78,1.95,7.28-3.9,9.47-21.54,18-6.84,2.98-20.26,7.39-25.97,7.24-1.79-.05-3.01-1.27-2.94-8.74,.06-6.58,2.24-21.05,3.25-25.48s3.06-6.61,7.23-6.88c8.31-.79,15.31-2.2,18.41-3.69,7.79-3.73,10.26-9.66,11.57-13.71,1.81-5.59,3.51-11.23,4.81-16.95,1.71-7.49,.11-14.84-3.52-21.11-2.36-4.06-6.75-7.01-10.58-10.02-1.76-1.38-3.61,.29-4.08,4.2-.31,2.63,.49,5.65,1.14,8.23,1.57,6.26,2.56,10.28,.83,17.27-1.28,5.17-4.32,12.37-10.53,16.03-2.83,1.67-7.44-.46-8.09-4.08-.43-2.41,.14-5.09,.61-7.6,.64-3.41,4.63-19.2,9.51-34.32,4.95-15.34,10.78-30,11.6-31.89,1.76-4.09,4.47-7.91,17.12-1.15Z"/><path d="M83.55,406.85c-2.43,4.91-4.95,8.59-8.59,12.6-3.45,3.8-9.93,5.05-13.01-1.86-3.65-8.2-3.67-16.68-2.29-25.39,1.45-9.14,2.68-14.12,5.16-20.77,1.82-4.88,3.39-8.09,6.35-12.45,1.41-2.08,4.29-5.35,6.54-6.47,5.87-2.93,9.22,.51,11.5,9.73,1.49,6.04,1.85,16.03,.89,22.18-.37,2.4-.76,4.62-1.39,7.97-.26,1.35-1.68,7.44-5.16,14.47Z"/><path d="M196.98,136.86c1.79,1.83,3.35,3.89,5.1,5.76,6.72,7.21,13.55,14.3,20.18,21.59,5.3,5.84,10.33,11.91,15.54,17.83,.97,1.1,2.25,1.91,3.28,2.96,1.7,1.74,3.29,3.57,4.95,5.35,2.34,2.51,4.42,5.36,7.1,7.45,6.09,4.74,6.26,12.5,.17,17.47-3.61,2.95-6.62,6.65-9.81,10.1-3.02,3.26-7.51,4.07-10.91,1.43-4.04-3.14-7.81-6.62-11.75-9.88-2.85-2.36-5.64-4.84-8.76-6.81-3.14-1.98-7.04-1.34-10.32,.07-5.3,2.28-13.44,7.91-24.3,21.96-10.05,13-12.06,16.06-15.16,21.4-2.58,4.44-4.58,9.26-2.35,14.22,.87,1.94,3.2,4.36,5.05,5.43,3.23,1.87,6.63,3.47,9.88,5.32,3.15,1.79,6.19,3.79,9.3,5.66,.81,.49,1.66,.91,2.54,1.23,5.55,2.02,7.12,5.92,4.28,11.03-1.74,3.14-3.72,6.15-5.5,9.27-1.19,2.08-2.28,4.22-3.31,6.37-1.46,3.05-3.43,3.98-6.51,2.91-1.86-.64-3.68-1.45-5.58-1.96-1.41-.38-3.1-.94-4.35-.5-4.72,1.67-11.43-.55-13.95-1.27-1.63-.47-3.78-1.98-3.35-3.81,.46-2,3.69-1.46,5.13-1.27,2.63,.35,4.38-.18,4.87-1.33,.88-2.04-.61-3.22-2.58-4.21-1.2-.6-4.24-3.16-3.44-4.98,.88-2,3.45-.98,4.71-.44,2.01,.86,6.62,4.25,7.88,5.85,.82,1.04,1.98,2.82,2.41,4.2,1.16,2.57,4.12,5.24,6.95,5.11,3.06-.14,4.04-2.59,4.97-5.19,.93-2.6,2.12-5.25,3.79-7.43,2.94-3.85,2.78-7.27-2.43-10.09-3.63-1.97-7.24-3.98-10.93-5.84-4.82-2.42-9.69-4.77-14.58-7.04-4.8-2.23-9.6-2.21-14.71-.24-9.95,3.85-20.27,5.88-30.93,5.06-3.95-.3-7.88-.88-11.81-1.44-2.38-.34-3.89,.29-4.91,2.72-1.5,3.57-3.35,7.02-5.16,10.45-2.26,4.27-1.21,8.45,2.42,11.54,7.91,6.75,15.11,14.11,18.78,24.22,1.41,3.88,2.79,7.83,4.74,11.44,2.6,4.82,6.64,8.18,12.03,9.88,6.6,2.09,13.07,4.55,19.69,6.56,3.29,1,6.77,1.47,10.19,2,1.73,.27,2.42-.78,3.03-2.51,1.15-3.26,1.86-5.88,2.74-8.98,1.69-5.93,1.29-10.41-6.45-9.96-3.07,.18-6.26,.54-9.2-.06-2.56-.52-4.92-2.15-7.22-3.54-.59-.36-1.08-1.46-.73-2.47,.41-1.19,1.83-1.07,2.81-1.11,1.56-.06,3.15,.51,4.7,.39,2.4-.19,3.12-1.91,1.5-3.67-.88-.96-2.25-1.51-3.46-2.12-1.43-.72-2.68-1.64-2.01-3.11,.88-1.94,3.08-1.61,3.99-1.42,5.86,1.22,9.83,4.81,12.9,9.92,1.15,1.91,3.55,3.33,5.76,4.31,2.89,1.28,4.47,4.47,3.8,7.56-.49,2.27-1.14,4.52-1.86,6.73-1.29,3.98-2.97,7.84-4.17,11.84-.9,2.98-2.7,4.64-5.65,4.11-4.7-.85-9.31-2.15-13.96-3.25-7.42-1.75-14.04-6.75-22.22-5.27-1.53,.28-3.43,1.4-4.19,2.69-5.27,8.93-7.91,18.66-10.39,28.75-3.09,12.59-3.88,33.72,.23,41.97,.62,1.45,2.85,2.78,4.56,3.07,8.79,1.5,17.64,2.63,26.47,3.91,2.96,.43,5.48,3.01,5.25,6.2-.59,8.21-1.42,16.42-2.38,24.6-.28,2.41-2.84,3.11-7.21,3.36-6.49,.37-23.73,.42-37.27,.13-18.28-.39-73.66-2.35-79.65-2.63-2.64-.12-9.09-1.24-9.48-4.79-.5-4.51,6.75-5.48,12.08-5.67,8.42-.3,33.83,.2,51.92-16.91,21.25-20.09,24.11-33.7,29.52-53.32,4.43-16.05,11.53-50.4-1.44-67.67-4.75-6.32-15.06-14.15-23.89-17.88-5.7-2.41-17.08-6.29-21.62-8.31-1.57-.7-3.4-2.43-2.9-3.85s1.96-1.37,3.52-.77c5.76,2.22,11.55,4.38,17.3,6.63,5.04,1.98,8,.63,9.96-4.38,1.05-2.68,2.56-5.19,3.7-7.84,.74-1.72,1.44-3.52,1.7-5.34,.33-2.24-.73-3.78-2.87-4.95-5.31-2.9-10.45-6.11-15.65-9.22-.03-.02-.05-.03-.08-.05-1.18-.86-3.58-2.33-2.43-4.53,.77-1.48,2.58-.92,4.01-.4,3.31,1.19,18.45,11.02,23.21,13.35,8.15,4,18.43,5.59,32.96,2.54,24.56-5.16,41.17-37.3,46.22-44.68,11.38-16.61,19.67-33.51,21.32-46.91s-2.72-35.54-11.48-46.78c-4.47-5.73-8.55-11.77-12.55-17.84-.73-1.11-.79-3.41-.09-4.47,.5-.76,3.28-1.03,4.19-.36,3.21,2.36,7.05,6.46,9.86,9.12M104.78,443.77c3.29-2.6,7.37-4.54,12.58-4.12,3.62,.29,10.71,6.29,12.07,12.33,.43,1.92,.75,3.89,1.45,5.7,.19,.5,.62,.91,1.08,1.29,.59,.49,1.49,.31,1.85-.37,.24-.45,.43-.9,.46-1.36,.13-1.97-.04-3.96-.16-5.94-.18-2.97-2.67-5.92-5.29-8.61-6.31-6.08-11.78-6.83-20.22-4.13-6.67,2.13-12.68,10.48-12.37,17.36,.03,.62,.45,1.21,.92,1.8s1.38,.61,1.88,.02c.35-.41,.67-.84,.83-1.31,.51-1.5,.98-2.89,.91-4.68,.06-3.35,1.5-6.02,4-7.99ZM250.69,206.73c-.47-.73-2.64,.21-3.88,1.05-5.55,3.77-8.04,5.1-12.05,5.38-4.42,.31-8.57-2.88-12.95-8.09-3.96-4.7-1.75-13.48,1.48-18.25,1.45-2.14,2.92-4.31,1.81-5.3-.83-.74-1.96-.32-3.8,2.27-3.39,4.77-4.78,11.61-4.75,16.23,.05,7.93,12.34,16.95,18.78,16.27,4.01-.42,9.57-2.83,13.15-5.87,2.16-1.84,2.65-3,2.21-3.68ZM118.94,460.01c.49,1.12,1.71,1.97,3.17,1.72,.96-.16,2.33-1.46,2.25-3.25-.1-2.16-.7-4.12-1.44-6.32-.34-1.02-1.5-1.86-1.98-1.87-1.18-.02-1.81,1.13-1.98,2.43-.3,2.18-.57,6.04-.02,7.29Zm-7.1-8.13c-.48-.81-1.28-.91-1.9-.42-1.85,1.47-2.31,3.21-2.55,5.06-.2,1.55,.53,3.41,1.68,3.57,1.42,.19,2.4-1.04,2.88-2.39,.76-2.14,1.16-3.68-.11-5.82ZM232.5,194.88c1.19-1.03,1.91-1.65,2.38-2.45,.55-.93,.77-2.19-.63-3.19-1.48-1.05-2.25,.05-2.85,.61-.78,.72-1.16,1.2-1.82,2.32-.92,1.57-1.73,3.44-.74,4.19,1.12,.86,2.89-.82,3.66-1.48Zm8.16,3.32c-.83,.48-1.85,1.3-2.67,2.72-.64,1.1-1.33,2.08-.78,2.72,1.14,1.31,3.05,.1,4.27-.56,.44-.24,.79-.44,1.43-.99,.76-.67,2.14-2.03,.6-3.63-1.08-1.25-2.21-.62-2.85-.25Z"/><path d="M221.04,236c3.86,.88,7.61,3.69,5.08,8.26-7.35,9.3-14.2,18.77-26.01,35.78-2.5,3.6-5.08,3.64-6.59,2.17-5.83-5.67-10.5-17.98,1.88-34.57,12.42-15.7,22.75-12.3,25.64-11.65Z"/><path d="M147.37,369.2c3.89-.72,8.45,.38,7.93,5.58-3.08,11.45-5.62,22.86-9.74,43.15-.87,4.3-3.23,5.36-5.2,4.6-7.6-2.9-16.75-12.36-11.94-32.49,5.2-19.33,16.03-20.3,18.94-20.84Z"/></g><g><path d="M970.61,442.55c-12.07-.98-23.49-5.7-34.38-11.88-2.95-1.68-3.49-4.97-2.97-8.26,1.16-7.41,3.14-7.58,4.21-15.79,.41-3.19,1.53-12.22-.41-24.3-1.02-6.35-2.63-10.4-4.6-15.54-3.61-9.43-8.38-18.29-15.66-25.43-5.08-5.56-.9-10.21,10.84-25.9,4.71-5.79,14.58-15.89,19.72-18.39,1.61-.78,3.26-.26,6.63,6.41,2.97,5.87,7.7,19.72,8.84,24.11s.33,7.28-3.25,9.43c-7.02,4.53-12.58,9-14.65,11.75-5.19,6.9-4.66,13.29-3.96,17.49,.96,5.79,2.05,11.58,3.53,17.26,1.93,7.43,6.73,13.23,12.85,17.12,3.96,2.52,9.22,3.11,14,4.02,2.2,.42,3.08-1.92,1.68-5.61-.93-2.47-3.03-4.79-4.8-6.79-4.27-4.83-7.01-7.94-8.69-14.95-1.24-5.18-1.86-12.97,1.97-19.08,1.74-2.78,6.81-3.02,9.06-.11,1.49,1.94,2.22,4.58,2.96,7.03,1,3.32,4.73,19.18,7.36,34.84s4.23,31.59,4.38,33.65c.32,4.44-.33,9.08-14.67,8.9Z"/><path d="M901.19,365.39c-.1-5.48,.44-9.91,1.82-15.14,1.32-4.96,6.49-9.05,12.4-4.33,7.02,5.6,10.94,13.11,13.72,21.48,2.92,8.78,4.12,13.77,4.98,20.82,.63,5.17,.71,8.74,.09,13.98-.3,2.49-1.35,6.72-2.82,8.75-3.86,5.31-8.42,3.79-14.68-3.35-4.11-4.68-9.02-13.38-11-19.28-.77-2.3-1.46-4.45-2.43-7.71-.39-1.32-1.93-7.38-2.08-15.22Z"/><path d="M910.14,252.98c-11.51,3.78-23.86,3.87-36.3,2.39-3.37-.4-5.14-3.22-5.95-6.45-1.81-7.28-.04-8.2-2.25-16.19-.86-3.1-3.33-11.85-9.81-22.24-3.41-5.46-6.46-8.56-10.27-12.53-6.99-7.29-14.82-13.6-24.3-17.36-6.84-3.15-4.79-9.06-.06-28.07,2.09-7.17,7.27-20.3,11.04-24.6,1.18-1.34,2.9-1.5,8.6,3.33,5.02,4.26,14.76,15.18,17.51,18.79s3.13,6.58,.67,9.95c-4.71,6.9-8.1,13.18-8.94,16.51-2.11,8.37,.87,14.06,3.14,17.66,3.14,4.96,6.39,9.88,9.95,14.53,4.66,6.1,11.34,9.58,18.49,10.79,4.63,.79,9.71-.71,14.47-1.73,2.19-.47,2.09-2.96-.62-5.82-1.82-1.92-4.65-3.23-7.06-4.39-5.82-2.8-9.54-4.6-13.81-10.4-3.15-4.29-6.75-11.23-5.59-18.35,.53-3.24,5.11-5.43,8.31-3.61,2.13,1.21,3.83,3.36,5.45,5.33,2.22,2.67,11.8,15.84,20.3,29.25,8.63,13.61,16.17,27.47,17.1,29.31,2.02,3.97,3.22,8.5-10.06,13.89Z"/><path d="M816.21,208.81c-2.22-5.01-3.44-9.3-4.2-14.66-.71-5.08,2.47-10.86,9.75-8.81,8.64,2.43,15.17,7.84,20.98,14.47s9.14,11.09,12.67,17.25c2.59,4.52,4.05,7.78,5.51,12.85,.69,2.41,1.37,6.72,.79,9.16-1.5,6.39-6.29,6.76-14.83,2.62-5.6-2.71-13.51-8.83-17.62-13.5-1.6-1.82-3.07-3.54-5.23-6.17-.87-1.06-4.64-6.05-7.82-13.22Z"/><path d="M951.25,468.67c-2.55,.2-5.13,.09-7.69,.24-9.84,.56-19.66,1.27-29.5,1.7-7.88,.34-15.77,.33-23.65,.54-1.46,.04-2.91,.51-4.37,.62-2.42,.19-4.85,.25-7.28,.38-3.43,.19-6.95-.03-10.27,.7-7.54,1.65-13.61-3.18-13.54-11.04,.04-4.66-.88-9.34-1.49-14-.58-4.41,1.67-8.37,5.88-9.3,5-1.1,10.08-1.77,15.11-2.72,3.63-.69,7.33-1.24,10.83-2.38,3.53-1.15,5.53-4.56,6.54-7.98,1.64-5.54,2.52-15.39-1.34-32.73-3.57-16.04-4.63-19.54-6.76-25.35-1.76-4.82-4.19-9.44-9.42-10.9-2.05-.57-5.4-.33-7.4,.41-3.51,1.29-6.91,2.88-10.41,4.2-3.4,1.28-6.87,2.34-10.3,3.53-.89,.31-1.76,.69-2.57,1.17-5.11,2.98-9.1,1.69-11.21-3.76-1.3-3.35-2.35-6.79-3.61-10.16-.84-2.24-1.79-4.45-2.78-6.62-1.41-3.08-.86-5.18,1.92-6.87,1.69-1.02,3.46-1.9,5.07-3.03,1.19-.84,2.7-1.78,3.16-3.02,1.74-4.7,7.73-8.43,9.9-9.91,1.4-.95,3.93-1.64,5.07-.14,1.24,1.63-1.23,3.77-2.3,4.76-1.95,1.8-2.66,3.48-2.1,4.59,1.01,1.98,2.87,1.59,4.88,.71,1.23-.54,5.14-1.24,6.03,.54,.97,1.96-1.45,3.28-2.68,3.9-1.95,.99-7.5,2.37-9.54,2.32-1.32-.04-3.44-.28-4.77-.83-2.72-.75-6.66-.18-8.37,2.08-1.85,2.44-.59,4.76,.82,7.14,1.4,2.38,2.68,4.99,3.29,7.67,1.08,4.72,3.81,6.78,9.31,4.59,3.84-1.53,7.69-3.02,11.48-4.67,4.95-2.16,9.86-4.4,14.74-6.71,4.78-2.27,7.84-5.97,9.59-11.16,3.41-10.11,8.45-19.34,15.89-27.01,2.76-2.84,5.72-5.5,8.66-8.16,1.78-1.62,2.27-3.17,1.05-5.52-1.79-3.44-3.25-7.06-4.73-10.66-1.84-4.47-5.72-6.33-10.42-5.52-10.25,1.77-20.51,2.6-30.63-1.05-3.89-1.4-7.8-2.86-11.82-3.67-5.37-1.08-10.53-.13-15.29,2.93-5.82,3.74-11.85,7.14-17.64,10.94-2.88,1.89-5.46,4.26-8.06,6.56-1.32,1.16-.95,2.35,0,3.94,1.77,2.97,3.33,5.19,5.15,7.85,3.48,5.1,7.18,7.65,11.78,1.41,1.83-2.48,3.59-5.15,5.93-7.04,2.04-1.64,4.8-2.41,7.34-3.28,.65-.22,1.81,.11,2.36,1.02,.65,1.07-.35,2.1-.94,2.87-.96,1.24-2.41,2.09-3.3,3.37-1.39,1.97-.52,3.62,1.86,3.5,1.3-.07,2.6-.76,3.84-1.3,1.47-.64,2.97-1.01,3.68,.45,.93,1.92-.73,3.4-1.46,3.98-4.69,3.73-9.99,4.48-15.88,3.58-2.21-.34-4.83,.6-7,1.67-2.83,1.4-6.29,.58-8.24-1.91-1.43-1.83-2.75-3.77-3.99-5.73-2.23-3.54-4.13-7.29-6.43-10.78-1.72-2.6-1.84-5.04,.45-6.97,3.66-3.07,7.61-5.79,11.43-8.66,6.09-4.58,14.17-6.48,18.26-13.72,.76-1.35,1.12-3.53,.61-4.94-3.5-9.77-9.29-18.01-15.46-26.37-7.7-10.43-23.44-24.55-32.42-26.66-1.51-.45-3.96,.42-5.27,1.54-6.77,5.8-13.31,11.88-19.94,17.85-2.23,2-5.82,2.29-8.12,.07-5.93-5.71-11.71-11.59-17.39-17.57-1.67-1.76-.58-4.17,2.03-7.69,3.87-5.23,14.85-18.51,23.73-28.74,11.99-13.81,48.91-55.13,52.95-59.55,1.78-1.95,6.76-6.2,9.75-4.23,3.79,2.5-.1,8.69-3.36,12.91-5.15,6.66-21.78,25.88-20.2,50.72,1.86,29.19,10.49,40.09,22.11,56.8,9.5,13.66,31.37,41.09,52.94,42.17,7.9,.39,20.51-2.53,29.03-6.93,5.5-2.84,15.76-9.11,20.21-11.31,1.55-.76,4.04-1.06,4.82,.23s-.2,2.38-1.66,3.2c-5.39,3.01-10.75,6.08-16.16,9.06-4.74,2.61-5.6,5.75-3,10.46,1.39,2.52,2.35,5.28,3.66,7.86,.85,1.66,1.79,3.36,3.02,4.72,1.52,1.68,3.37,1.86,5.64,.95,5.63-2.23,11.38-4.13,17.1-6.13,.03-.01,.06-.02,.09-.03,1.42-.36,4.08-1.27,5.04,1.02,.64,1.54-.95,2.57-2.25,3.34-3.03,1.78-20.27,7.14-25.11,9.31-8.29,3.71-16.09,10.59-23.03,23.71-11.74,22.18,2.35,55.5,4.79,64.11,5.49,19.36,13.18,36.55,22.43,46.39,8.9,9.47,29.06,20.63,43.31,21.09,7.26,.23,14.52,.95,21.74,1.76,1.32,.15,3.13,1.57,3.49,2.79,.26,.87-1.31,3.18-2.4,3.45-3.87,.96-9.47,1.3-13.32,1.75m-198.51-265.84c-.11,4.19-1.22,8.57-4.88,12.31-2.54,2.6-11.69,4.22-17.2,1.39-1.75-.9-3.47-1.91-5.31-2.53-.51-.17-1.09-.11-1.69,0-.76,.14-1.19,.95-.9,1.66,.19,.47,.41,.91,.75,1.22,1.44,1.36,3.07,2.5,4.67,3.67,2.4,1.76,6.26,1.74,10,1.44,8.71-.96,12.78-4.68,16.11-12.91,2.63-6.5,.06-16.45-5.43-20.61-.49-.37-1.22-.43-1.97-.45s-1.35,.67-1.22,1.43c.09,.53,.22,1.05,.48,1.48,.82,1.35,1.6,2.6,3.01,3.69,2.54,2.19,3.67,5,3.59,8.19Zm88.93,263.76c.86,.1,1.53-2.16,1.67-3.66,.65-6.68,1.22-9.44,3.57-12.7,2.59-3.6,7.7-4.74,14.5-4.78,6.15-.04,11.48,7.27,13.08,12.81,.72,2.49,1.45,5,2.92,4.78,1.1-.16,1.5-1.3,.69-4.37-1.5-5.66-5.87-11.1-9.44-14.03-6.13-5.03-20.92-1.35-24.51,4.03-2.24,3.35-3.95,9.17-3.89,13.86,.03,2.83,.62,3.96,1.42,4.05Zm-110.47-263.27c-1.17-.34-2.6,.05-3.35,1.34-.49,.84-.37,2.72,1.06,3.81,1.72,1.31,3.62,2.1,5.78,2.94,1,.39,2.39,.04,2.71-.33,.77-.89,.29-2.11-.6-3.08-1.49-1.62-4.28-4.3-5.6-4.67Zm10.79-.25c.93,.15,1.52-.4,1.54-1.19,.05-2.36-.99-3.83-2.26-5.2-1.06-1.15-2.97-1.77-3.82-.99-1.05,.97-.74,2.52,0,3.74,1.16,1.95,2.09,3.24,4.54,3.64Zm120.42,257.11c.03,1.58,.05,2.52,.36,3.39,.36,1.01,1.19,1.99,2.85,1.55,1.75-.47,1.4-1.76,1.35-2.58-.06-1.06-.18-1.66-.62-2.88-.62-1.71-1.53-3.53-2.75-3.25-1.38,.32-1.22,2.75-1.2,3.77Zm-7.77,4.15c.16-.94,.18-2.26-.38-3.8-.44-1.2-.75-2.36-1.59-2.34-1.74,.04-2.02,2.28-2.3,3.64-.1,.49-.17,.89-.15,1.73,.02,1.01,.19,2.94,2.41,2.79,1.65-.03,1.89-1.3,2.02-2.03Z"/><path d="M859.64,423.77c-3.14,2.41-7.71,3.49-9.6-1.38-2.45-11.6-5.35-22.92-10.87-42.88-1.17-4.23,.45-6.24,2.54-6.46,8.09-.86,20.54,3.43,25.37,23.55,4.13,19.59-5.09,25.36-7.44,27.16Z"/><path d="M804.34,281.95c-1.93,3.45-5.7,6.26-9.36,2.53-6.83-9.69-13.98-18.94-26.94-35.08-2.75-3.42-2.05-5.91-.22-6.94,7.09-3.99,20.22-4.97,32.62,11.6,11.54,16.36,5.35,25.31,3.91,27.89Z"/></g><g><path d="M814.5,848.13c-6.39-10.29-9.4-22.27-10.91-34.7-.41-3.37,1.91-5.76,4.86-7.3,6.64-3.48,7.96-1.98,15.2-6.02,2.81-1.57,10.73-6.04,19.28-14.8,4.5-4.6,6.79-8.3,9.75-12.95,5.42-8.52,9.71-17.62,11.12-27.72,1.45-7.39,7.67-6.79,27.26-6.71,7.46,.33,21.45,2.26,26.51,4.9,1.58,.83,2.14,2.46-1.2,9.14-2.95,5.88-11.26,17.93-14.11,21.46s-5.65,4.6-9.51,3.01c-7.82-2.94-14.72-4.75-18.16-4.78-8.63-.07-13.46,4.17-16.41,7.23-4.08,4.22-8.08,8.55-11.77,13.11-4.82,5.98-6.62,13.28-6.11,20.52,.33,4.68,2.99,9.26,5.1,13.65,.97,2.01,3.37,1.33,5.51-1.98,1.43-2.22,2.04-5.29,2.6-7.9,1.34-6.31,2.21-10.36,6.84-15.88,3.42-4.08,9.32-9.21,16.5-9.77,3.27-.26,6.48,3.68,5.48,7.22-.67,2.36-2.36,4.51-3.88,6.56-2.07,2.79-12.6,15.21-23.62,26.65-11.18,11.6-22.87,22.21-24.43,23.55-3.38,2.9-7.49,5.14-15.88-6.49Z"/><path d="M835.18,746.42c4.34-3.34,8.22-5.55,13.25-7.55,4.77-1.9,11.14-.17,10.87,7.39-.32,8.97-4.03,16.59-9.09,23.81-5.31,7.57-8.62,11.51-13.76,16.39-3.78,3.59-6.6,5.78-11.18,8.39-2.18,1.25-6.2,2.92-8.71,2.94-6.57,.05-8.05-4.51-6.05-13.79,1.31-6.08,5.38-15.22,8.94-20.32,1.39-1.99,2.71-3.82,4.75-6.54,.82-1.1,4.78-5.94,10.99-10.73Z"/><path d="M930.83,686.69c-9.89-7-17.31-16.87-23.53-27.74-1.69-2.95-.47-6.05,1.65-8.62,4.77-5.79,6.56-4.92,11.67-11.45,1.98-2.53,7.54-9.73,12.03-21.12,2.36-5.98,3.03-10.28,3.96-15.71,1.69-9.95,2.11-20-.52-29.86-1.54-7.37,4.43-9.24,22.52-16.76,7-2.59,20.64-6.24,26.34-5.77,1.78,.15,2.93,1.44,2.44,8.89-.43,6.57-3.42,20.89-4.67,25.26-1.2,4.16-3.42,6.43-7.6,6.46-8.35,.33-15.41,1.34-18.59,2.65-7.98,3.29-10.78,9.06-12.32,13.03-2.12,5.47-4.13,11.01-5.75,16.65-2.12,7.38-.95,14.81,2.33,21.28,2.12,4.19,6.35,7.38,10,10.6,1.68,1.48,3.62-.08,4.31-3.97,.46-2.6-.17-5.66-.67-8.29-1.22-6.34-1.98-10.41,.14-17.29,1.57-5.09,5.01-12.11,11.42-15.41,2.92-1.51,7.4,.87,7.85,4.52,.3,2.43-.42,5.08-1.03,7.55-.83,3.37-5.7,18.91-11.42,33.73-5.8,15.04-12.45,29.34-13.37,31.19-1.99,3.98-4.91,7.65-17.15,.19Z"/><path d="M910.41,584.93c2.7-4.77,5.42-8.3,9.28-12.1,3.66-3.6,10.2-4.48,12.88,2.59,3.19,8.39,2.73,16.86,.86,25.48s-3.47,13.95-6.32,20.45c-2.09,4.77-3.84,7.89-7.04,12.07-1.52,1.99-4.58,5.1-6.89,6.09-6.03,2.6-9.17-1.03-10.93-10.36-1.15-6.12-.95-16.11,.36-22.2,.51-2.37,1.01-4.57,1.84-7.88,.33-1.34,2.1-7.33,5.96-14.15Z"/><path d="M781.98,848.12c-1.69-1.93-3.13-4.07-4.77-6.04-6.3-7.57-12.73-15.04-18.93-22.69-4.96-6.12-9.65-12.47-14.51-18.68-.9-1.15-2.14-2.03-3.1-3.14-1.59-1.83-3.08-3.75-4.64-5.62-2.19-2.64-4.11-5.6-6.67-7.84-5.82-5.08-5.54-12.83,.81-17.45,3.77-2.74,6.98-6.27,10.36-9.53,3.2-3.09,7.73-3.64,10.97-.81,3.86,3.36,7.42,7.05,11.18,10.52,2.71,2.51,5.36,5.15,8.36,7.29,3.02,2.15,6.95,1.73,10.3,.51,5.42-1.98,13.86-7.14,25.5-20.56,10.76-12.41,12.94-15.35,16.34-20.52,2.82-4.28,5.09-8.99,3.15-14.06-.76-1.99-2.95-4.54-4.73-5.71-3.12-2.05-6.43-3.83-9.57-5.86-3.05-1.97-5.97-4.13-8.97-6.17-.78-.53-1.6-1-2.47-1.37-5.43-2.33-6.77-6.31-3.65-11.25,1.92-3.04,4.06-5.93,6.01-8.94,1.3-2.01,2.51-4.08,3.66-6.18,1.63-2.96,3.65-3.78,6.66-2.54,1.82,.75,3.59,1.65,5.46,2.27,1.38,.46,3.04,1.11,4.31,.74,4.81-1.4,11.38,1.19,13.86,2.06,1.6,.56,3.66,2.19,3.13,3.99-.58,1.97-3.76,1.25-5.19,.98-2.6-.49-4.38-.07-4.94,1.05-.99,1.99,.43,3.25,2.34,4.34,1.16,.67,4.06,3.4,3.15,5.16-.99,1.95-3.5,.79-4.73,.17-1.96-.97-6.37-4.62-7.54-6.28-.76-1.08-1.82-2.93-2.17-4.33-1.01-2.63-3.82-5.46-6.65-5.49-3.06-.03-4.18,2.36-5.25,4.9-1.08,2.54-2.41,5.12-4.2,7.21-3.15,3.68-3.18,7.1,1.86,10.21,3.52,2.17,7.01,4.38,10.59,6.44,4.68,2.69,9.4,5.31,14.16,7.85,4.67,2.49,9.46,2.75,14.67,1.07,10.15-3.28,20.57-4.73,31.17-3.31,3.93,.53,7.82,1.32,11.71,2.1,2.36,.47,3.9-.07,5.06-2.44,1.7-3.48,3.74-6.82,5.74-10.15,2.5-4.14,1.68-8.37-1.77-11.66-7.52-7.18-14.3-14.94-17.39-25.23-1.19-3.95-2.35-7.97-4.09-11.68-2.33-4.95-6.17-8.54-11.46-10.54-6.47-2.45-12.8-5.27-19.29-7.66-3.23-1.19-6.68-1.85-10.06-2.57-1.72-.37-2.46,.64-3.17,2.34-1.34,3.19-2.18,5.76-3.24,8.81-2.03,5.83-1.88,10.32,5.88,10.31,3.08,0,6.28-.18,9.18,.58,2.53,.66,4.8,2.42,7.01,3.94,.57,.39,.99,1.52,.59,2.5-.47,1.16-1.89,.97-2.87,.95-1.56-.03-3.12-.69-4.67-.65-2.41,.06-3.22,1.73-1.7,3.58,.83,1.01,2.16,1.64,3.34,2.31,1.39,.8,2.58,1.79,1.83,3.22-.99,1.89-3.17,1.43-4.06,1.19-5.79-1.55-9.55-5.36-12.33-10.63-1.04-1.97-3.36-3.53-5.51-4.63-2.81-1.44-4.21-4.71-3.37-7.76,.62-2.24,1.39-4.45,2.23-6.62,1.51-3.9,3.4-7.66,4.83-11.59,1.07-2.93,2.95-4.48,5.87-3.78,4.65,1.11,9.18,2.67,13.76,4.03,7.31,2.17,13.64,7.52,21.89,6.51,1.54-.19,3.51-1.2,4.34-2.45,5.77-8.62,8.94-18.18,11.99-28.12,3.8-12.39,5.77-33.45,2.12-41.92-.53-1.48-2.69-2.93-4.38-3.32-8.69-1.99-17.47-3.62-26.21-5.39-2.94-.6-5.3-3.32-4.89-6.49,1.05-8.17,2.35-16.31,3.76-24.43,.42-2.39,3.01-2.95,7.39-2.95,6.5,0,23.71,.91,37.22,1.96,18.23,1.41,73.42,6.48,79.37,7.1,2.63,.27,9,1.74,9.2,5.32,.25,4.53-7.04,5.09-12.38,4.98-8.42-.18-33.76-2.1-52.79,13.96-22.35,18.87-25.97,32.29-32.47,51.58-5.32,15.77-14.34,49.67-2.37,67.64,4.38,6.58,14.24,14.97,22.85,19.2,5.56,2.73,16.7,7.24,21.12,9.51,1.53,.79,3.26,2.62,2.68,4.01s-2.03,1.26-3.56,.57c-5.63-2.54-11.28-5.02-16.9-7.59-4.92-2.26-7.95-1.08-10.19,3.81-1.2,2.62-2.84,5.04-4.13,7.62-.83,1.67-1.63,3.43-2,5.24-.45,2.22,.51,3.81,2.59,5.1,5.14,3.19,10.09,6.69,15.1,10.09,.03,.02,.05,.04,.07,.06,1.13,.92,3.45,2.52,2.18,4.66-.85,1.43-2.63,.77-4.02,.18-3.24-1.38-17.8-12.04-22.42-14.63-7.92-4.45-18.09-6.62-32.76-4.39-24.81,3.77-43.2,34.93-48.66,42.01-12.29,15.94-21.52,32.35-23.93,45.64-2.31,12.79,.72,35.63,8.83,47.35,4.14,5.97,7.88,12.23,11.53,18.52,.67,1.15,.6,3.45-.16,4.47-.54,.73-3.34,.84-4.2,.13-3.07-2.54-6.68-6.84-9.33-9.66m95.44-317.75c-3.43,2.41-7.61,4.12-12.8,3.41-3.6-.49-10.34-6.88-11.36-12.99-.32-1.94-.53-3.92-1.13-5.77-.17-.51-.56-.94-1.01-1.35-.56-.53-1.47-.4-1.87,.26-.26,.43-.48,.87-.54,1.33-.24,1.96-.18,3.96-.17,5.94,.02,2.98,2.33,6.06,4.8,8.89,5.95,6.42,11.37,7.48,19.96,5.26,6.78-1.76,13.25-9.75,13.33-16.64,0-.62-.38-1.24-.81-1.85s-1.35-.68-1.87-.13c-.37,.39-.71,.8-.9,1.26-.6,1.46-1.14,2.83-1.17,4.62-.24,3.35-1.83,5.92-4.44,7.76Zm-159,228.46c.43,.75,2.65-.06,3.94-.83,5.76-3.45,8.31-4.64,12.33-4.69,4.43-.06,8.39,3.36,12.47,8.8,3.69,4.92,.99,13.55-2.51,18.13-1.57,2.06-3.16,4.14-2.11,5.19,.79,.79,1.94,.43,3.92-2.05,3.65-4.57,5.42-11.32,5.65-15.93,.4-7.92-11.37-17.61-17.83-17.29-4.03,.2-9.72,2.29-13.46,5.12-2.26,1.71-2.81,2.85-2.41,3.55Zm145.78-245.48c-.43-1.14-1.59-2.06-3.07-1.9-.97,.11-2.41,1.32-2.43,3.12-.03,2.16,.47,4.16,1.08,6.39,.28,1.04,1.4,1.95,1.87,1.98,1.18,.09,1.87-1.03,2.12-2.32,.42-2.16,.91-6,.43-7.28Zm6.63,8.52c.43,.84,1.22,.98,1.87,.53,1.93-1.37,2.49-3.08,2.83-4.91,.29-1.54-.34-3.44-1.47-3.66-1.41-.27-2.46,.91-3.01,2.22-.88,2.09-1.36,3.61-.22,5.81Zm-134.91,249.81c-1.25,.97-2,1.54-2.51,2.31-.6,.89-.89,2.15,.45,3.22,1.42,1.13,2.25,.08,2.88-.45,.82-.68,1.23-1.13,1.95-2.21,1-1.51,1.92-3.33,.97-4.14-1.07-.92-2.94,.65-3.74,1.28Zm-7.96-3.77c.85-.43,1.92-1.2,2.82-2.56,.7-1.07,1.45-2,.93-2.67-1.06-1.37-3.04-.27-4.29,.32-.45,.21-.81,.39-1.48,.91-.8,.62-2.25,1.9-.81,3.59,1.01,1.31,2.17,.75,2.83,.41Z"/><path d="M763.54,747.78c-3.8-1.09-7.39-4.11-4.61-8.53,7.86-8.87,15.23-17.94,27.98-34.26,2.7-3.46,5.28-3.35,6.7-1.8,5.5,5.99,9.47,18.54-3.82,34.41-13.28,14.98-23.41,11.01-26.25,10.19Z"/><path d="M844.57,618.93c-3.92,.5-8.42-.85-7.61-6.02,3.71-11.26,6.9-22.5,12.15-42.53,1.11-4.24,3.52-5.17,5.45-4.31,7.42,3.32,16.03,13.28,10.1,33.11-6.27,19.01-17.15,19.37-20.08,19.74Z"/></g><path d="M109.06,503.56c-2.84-1.91-5.71-3.9-8.64-5.81-3.3-2.15-6.5-4.51-10.02-6.2-1.5-.72-4.03-.59-5.49,.25-4.18,2.41-8.02,5.4-12.03,8.12-3.69,2.5-7.39,2.33-10.95-.26-4.16-3.03-8.37-6-12.6-8.92-2.92-2.02-5.06-1.9-7.78,.39-4.43,3.73-9.12,7.1-14.72,8.62-1.8,.49-4.36,.34-5.84-.65-5.42-3.62-10.62-7.61-15.68-11.74-.9-.74-.75-2.82-1.08-4.29,1.43-.18,3.2-.99,4.24-.42,3.19,1.74,6.07,4.06,9.12,6.07,1.9,1.24,3.86,2.4,5.87,3.45,2.59,1.35,4.87,.57,7.1-1.15,3.98-3.08,8.05-6.06,12.14-9,2.88-2.07,5.56-1.14,8.16,.76,4.47,3.26,9.02,6.42,13.47,9.72,1.76,1.3,3.17,1.32,5.08,.09,3.38-2.16,7.01-3.89,10.51-5.87,.76-.43,1.41-1.1,2.06-1.71,4.09-3.88,8.28-3.98,12.69-.49,3.65,2.88,7.45,5.56,11.14,8.37,2.03,1.54,4.12,1.86,6.34,.56,4.09-2.38,8.16-4.79,12.23-7.2,.85-.5,1.59-1.3,2.5-1.57,1.76-.52,3.72-.68,4.6,1.42,.77,1.84-.21,3.15-1.81,4.23-5.39,3.65-10.67,7.47-16.06,11.13-1.18,.8-2.6,1.22-4.57,2.11Z"/></g></svg>